<svg id="Layer_1" data-name="Layer 1" xmlns="http://www.w3.org/2000/svg" viewBox="0 0 130 130"><defs><style>.cls-1{fill:#00afe9;}.cls-2,.cls-3{fill:none;stroke:#575756;stroke-miterlimit:10;stroke-width:1.9px;}.cls-3{stroke-linecap:square;}</style></defs><title>Icons</title><polygon class="cls-1" points="45.32 52.52 65.78 65 85.62 52.9 64.58 41.36 45.32 52.52"/><path class="cls-2" d="M103.76,49.32V87.54L65,110.07,26.24,87.54V42.46L65,19.93l38.76,22.53L84.38,53.73,65,65V87.54m0,5.39v17.14"/><path class="cls-3" d="M46.38,76.71,65,87.54,84.38,76.27V61.71m-.54-8.25L65,42.46,45.62,53.73V69.07"/><path class="cls-2" d="M33.13,46.47l12.49,7.26L65,65m0-22.54V19.93M46.53,76,26.24,87.54m71.13-3.81L84.83,76.27"/></svg>