<svg id="Layer_1" data-name="Layer 1" xmlns="http://www.w3.org/2000/svg" xmlns:xlink="http://www.w3.org/1999/xlink" viewBox="0 0 130 130"><defs><style>.cls-1,.cls-3,.cls-5{fill:none;}.cls-2{fill:#00afe9;}.cls-3,.cls-5{stroke:#575756;stroke-width:1.79px;}.cls-3{stroke-miterlimit:10;}.cls-4{clip-path:url(#clip-path);}.cls-5{stroke-linecap:square;}</style><clipPath id="clip-path"><rect class="cls-1" x="20.03" y="30.29" width="89.93" height="69.43"/></clipPath></defs><title>Icons</title><polygon class="cls-2" points="86.14 84.37 75.51 59.8 64.88 84.37 54.24 59.8 43.67 84.23 34.18 63.14 39.97 63.13 43.55 70.96 54.24 46.25 64.88 70.83 75.51 46.25 86.14 70.83 89.56 63.14 95.83 63.14 86.14 84.37"/><polygon class="cls-3" points="86.14 84.37 75.51 59.8 64.88 84.37 54.24 59.8 43.67 84.23 34.18 63.14 39.97 63.13 43.55 70.96 54.24 46.25 64.88 70.83 75.51 46.25 86.14 70.83 89.56 63.14 95.83 63.14 86.14 84.37"/><g class="cls-4"><polyline class="cls-5" points="109.07 74.74 109.07 98.82 20.93 98.82 20.93 63.4 28.93 63.4"/><polyline class="cls-5" points="20.93 53.01 20.93 31.18 109.07 31.18 109.07 63.3 100.57 63.3"/></g></svg>