<svg id="Layer_1" data-name="Layer 1" xmlns="http://www.w3.org/2000/svg" xmlns:xlink="http://www.w3.org/1999/xlink" viewBox="0 0 130 130"><defs><style>.cls-1,.cls-3,.cls-5,.cls-7{fill:none;}.cls-2{clip-path:url(#clip-path);}.cls-3,.cls-5,.cls-7{stroke:#575756;}.cls-3{stroke-width:2.15px;}.cls-4{fill:#00afe9;}.cls-5{stroke-width:1.42px;}.cls-6{fill:#fff;}.cls-7{stroke-width:1.49px;}</style><clipPath id="clip-path"><rect class="cls-1" x="14.34" y="14.34" width="101.31" height="101.32"/></clipPath></defs><title>Icons</title><g class="cls-2"><polyline class="cls-3" points="80.8 31.66 65 15.86 15.86 65 65 114.14 80.8 98.33"/></g><polygon class="cls-4" points="59.34 83.38 49.99 73.05 51.93 64.19 62.13 52.54 61.36 36.44 71.48 47.13 72.3 56.48 71.12 59.27 72.6 65.66 77.88 57.79 83.13 69.93 77.94 83.48 59.34 83.38"/><polygon class="cls-5" points="59.34 83.38 49.99 73.05 51.93 64.19 62.13 52.54 61.36 36.44 71.48 47.13 72.3 56.48 71.12 59.27 72.6 65.66 77.88 57.79 83.13 69.93 77.94 83.48 59.34 83.38"/><polygon class="cls-6" points="63.09 83.38 59.27 77.68 64.63 71.5 64.95 62.67 72.94 72.43 73.19 78.31 70.24 83.44 63.09 83.38"/><polygon class="cls-7" points="63.09 83.38 59.27 77.68 64.63 71.5 64.95 62.67 72.94 72.43 73.19 78.31 70.24 83.44 63.09 83.38"/><g class="cls-2"><polyline class="cls-3" points="99.19 79.95 114.14 65 99.19 50.05"/></g></svg>