<svg id="Layer_1" data-name="Layer 1" xmlns="http://www.w3.org/2000/svg" xmlns:xlink="http://www.w3.org/1999/xlink" viewBox="0 0 130 130"><defs><style>.cls-1,.cls-4,.cls-5{fill:none;}.cls-2{clip-path:url(#clip-path);}.cls-3{fill:#00afe9;}.cls-4,.cls-5{stroke:#575756;}.cls-4{stroke-linecap:round;stroke-width:1.96px;}.cls-5{stroke-linecap:square;stroke-width:2.37px;}</style><clipPath id="clip-path"><rect class="cls-1" x="20.97" y="26.57" width="88.07" height="76.86"/></clipPath></defs><title>Icons</title><g class="cls-2"><path class="cls-3" d="M54.63,48,44.26,65.6,54.63,83.25h5.18v-8a11.42,11.42,0,0,1-2.51-1.73,10.92,10.92,0,0,1-1.9-2.29,10.39,10.39,0,0,1-1.21-2.7,10.44,10.44,0,0,1,0-5.93,10.39,10.39,0,0,1,1.21-2.7,10.92,10.92,0,0,1,1.9-2.29,11.09,11.09,0,0,1,2.51-1.73V66.44L65,69l5.18-2.53V55.92a11.12,11.12,0,0,1,2.51,1.74,11,11,0,0,1,1.91,2.28,11.1,11.1,0,0,1,1.21,2.7,10.68,10.68,0,0,1,0,5.93,11.1,11.1,0,0,1-1.21,2.7,11.51,11.51,0,0,1-1.91,2.28,11.09,11.09,0,0,1-2.51,1.73v8h5.18L85.73,65.6,75.36,48Z"/><path class="cls-4" d="M54.63,48,44.26,65.6,54.63,83.25h5.18v-8a11.42,11.42,0,0,1-2.51-1.73,10.92,10.92,0,0,1-1.9-2.29,10.39,10.39,0,0,1-1.21-2.7,10.44,10.44,0,0,1,0-5.93,10.39,10.39,0,0,1,1.21-2.7,10.92,10.92,0,0,1,1.9-2.29,11.09,11.09,0,0,1,2.51-1.73V66.44L65,69l5.18-2.53V55.92a11.12,11.12,0,0,1,2.51,1.74,11,11,0,0,1,1.91,2.28,11.1,11.1,0,0,1,1.21,2.7,10.68,10.68,0,0,1,0,5.93,11.1,11.1,0,0,1-1.21,2.7,11.51,11.51,0,0,1-1.91,2.28,11.09,11.09,0,0,1-2.51,1.73v8h5.18L85.73,65.6,75.36,48Z"/><path class="cls-5" d="M50,40.85l-6.55-11.4L22.34,65.68l21.78,36.57H70.54"/><path class="cls-5" d="M80,89.47l6.55,11.39,21.15-36.54L85.88,27.75H58.73"/></g></svg>