<svg id="Layer_1" data-name="Layer 1" xmlns="http://www.w3.org/2000/svg" xmlns:xlink="http://www.w3.org/1999/xlink" viewBox="0 0 130 130"><defs><style>.cls-1,.cls-2,.cls-3,.cls-6{fill:none;}.cls-2,.cls-3,.cls-6{stroke:#575756;}.cls-2{stroke-linejoin:bevel;stroke-width:1.73px;}.cls-3{stroke-width:1.99px;}.cls-4{fill:#00afe9;}.cls-5{clip-path:url(#clip-path);}.cls-6{stroke-width:1.73px;}</style><clipPath id="clip-path"><rect class="cls-1" x="22.32" y="22.72" width="85.36" height="84.55"/></clipPath></defs><title>Icons</title><rect class="cls-2" x="40.88" y="43.23" width="48.24" height="4.54"/><polyline class="cls-3" points="50.33 47.92 54.74 52.22 61.94 52.22 61.94 56.84"/><polyline class="cls-3" points="79.5 47.92 75.1 52.22 67.89 52.22 67.89 56.84"/><polygon class="cls-4" points="45.95 63.65 54.96 63.65 54.96 59.82 75.34 59.82 75.34 63.65 83.94 63.65 83.94 79.42 75.57 79.42 75.57 83.24 55.08 83.24 55.08 79.42 45.95 79.42 45.95 63.65"/><polygon class="cls-3" points="45.95 63.65 54.96 63.65 54.96 59.82 75.34 59.82 75.34 63.65 83.94 63.65 83.94 79.42 75.57 79.42 75.57 83.24 55.08 83.24 55.08 79.42 45.95 79.42 45.95 63.65"/><g class="cls-5"><polyline class="cls-6" points="89.98 64.8 106.81 64.72 106.81 23.59 23.18 23.59 23.18 64.68 40.02 64.72"/><polyline class="cls-6" points="89.98 76.32 106.81 76.38 106.81 106.41 23.18 106.41 23.18 76.4 40.02 76.38"/></g></svg>