<svg id="Layer_1" data-name="Layer 1" xmlns="http://www.w3.org/2000/svg" xmlns:xlink="http://www.w3.org/1999/xlink" viewBox="0 0 130 130"><defs><style>.cls-1,.cls-3,.cls-5{fill:none;}.cls-2{clip-path:url(#clip-path);}.cls-3,.cls-5{stroke:#575756;}.cls-3{stroke-width:2.22px;}.cls-4{fill:#00afe9;}.cls-5{stroke-width:1.85px;}</style><clipPath id="clip-path"><rect class="cls-1" x="14.59" y="13.54" width="100.81" height="102.91"/></clipPath></defs><title>Icons</title><g class="cls-2"><polyline class="cls-3" points="76.95 54.94 77.09 37.39 42.77 15.56 42.77 114.55 76.64 95.25 76.78 76.77"/><line class="cls-3" x1="14.59" y1="49.93" x2="36.04" y2="49.93"/><line class="cls-3" x1="14.59" y1="66.11" x2="36.04" y2="66.11"/><line class="cls-3" x1="14.59" y1="82.28" x2="36.04" y2="82.28"/></g><polygon class="cls-4" points="87.72 50.08 87.72 58.83 52.87 58.83 52.87 71.86 87.72 71.86 87.72 79.92 113.56 65 87.72 50.08"/><g class="cls-2"><polygon class="cls-5" points="87.72 50.08 87.72 58.83 52.87 58.83 52.87 71.86 87.72 71.86 87.72 79.92 113.56 65 87.72 50.08"/></g></svg>