<svg id="Layer_1" data-name="Layer 1" xmlns="http://www.w3.org/2000/svg" viewBox="0 0 505.27 185.4"><defs><style>.cls-1{fill:#00447c;}.cls-2{fill:#00b4ed;}</style></defs><title>footer-lofo</title><polygon class="cls-1" points="294.68 131.23 294.68 7.46 269.51 20.97 269.51 131.23 269.56 131.23 269.56 48.46 285.54 59.51 285.54 131.23 294.68 131.23"/><polygon class="cls-1" points="341.56 131.14 351.56 131.14 351.56 107.33 341.56 101.59 341.56 131.14"/><path class="cls-1" d="M326.2,77.09l.14,1.45-.14,1Zm11.94,9V61.24L317.07,48.11V84l-13.4,6.53v40.59h22.69V78Z"/><polygon class="cls-1" points="269.56 131.23 269.56 48.36 242.26 61.18 242.26 131.23 269.56 131.23"/><path class="cls-2" d="M60.33,75a6.77,6.77,0,0,1-4.72,3.75,16.49,16.49,0,0,1-3.83.5c-4.88.06-9.75,0-14.63,0l-.42,0V63a3.12,3.12,0,0,1,.44-.05c5.09,0,10.18,0,15.27,0a10.5,10.5,0,0,1,4.66,1.1,6.81,6.81,0,0,1,3.81,5,9.33,9.33,0,0,1-.58,6M70.39,57.45c-1-.55-2.09-1-3.18-1.48a.76.76,0,0,1,.13-.1l.62-.32a16.59,16.59,0,0,0,9-12.11,18.82,18.82,0,0,0-1-10.37,16.74,16.74,0,0,0-9.93-9.58A30.83,30.83,0,0,0,54.5,21.54H43.09v13c3.12,0,6.24,0,9.35,0a10.75,10.75,0,0,1,4.66,1.07,6.59,6.59,0,0,1,3.81,4.83,8.74,8.74,0,0,1-.58,5.76,6.71,6.71,0,0,1-4.72,3.63,17.63,17.63,0,0,1-3.83.49c-4.88,0-9.75,0-14.63,0l-.42,0H20.84v42h.81q16.51,0,33,0c1.5,0,3,0,4.49-.12a24.54,24.54,0,0,0,9.57-2.48,17,17,0,0,0,8.45-8.91,21.71,21.71,0,0,0,1.25-12,15.16,15.16,0,0,0-8.06-11.34"/><path class="cls-2" d="M20.84,43.85H36.61V21.54H21.45c-.2,0-.41,0-.61,0Z"/><path class="cls-2" d="M220.28,46.34a26.17,26.17,0,0,0-.66-9.85,18.75,18.75,0,0,0-11.76-13,29.9,29.9,0,0,0-11.25-1.9H186.29v13c3.07,0,6.14,0,9.22,0a10.78,10.78,0,0,1,4.66,1.07,6.6,6.6,0,0,1,3.8,4.83,8.74,8.74,0,0,1-.57,5.76,6.75,6.75,0,0,1-4.73,3.63,17.63,17.63,0,0,1-3.83.49c-4.87,0-9.75,0-14.63,0H163.76v42h16V62.84h.78c3.16,0,6.33,0,9.5,0a1.07,1.07,0,0,1,1.15.68c4.07,8.09,9.67,20.22,13.76,28.31a.75.75,0,0,0,.79.48h16.58l.63,0c-4.86-9-11.18-20.42-16-29.32.92-.39,1.82-.72,2.68-1.13A17.93,17.93,0,0,0,218,53.93a20.9,20.9,0,0,0,2.26-7.59"/><path class="cls-2" d="M179.79,34.59h0v-13h-16V43.85h16Z"/><polygon class="cls-2" points="150.6 92.3 150.6 21.59 134.49 21.59 134.49 50.37 134.49 50.37 105.18 50.37 89.18 50.37 89.18 92.3 105.21 92.3 105.21 62.88 134.5 62.88 134.5 92.3 150.6 92.3"/><rect class="cls-2" x="89.18" y="21.57" width="16" height="22.28"/><path class="cls-2" d="M207.31,128.44a11.41,11.41,0,0,0,8.4,3.15c5.34,0,7.92-2.73,7.92-6.35,0-4.39-4.16-5.37-7.42-6.11-2.28-.54-3.94-.95-3.94-2.29,0-1.19,1-2,2.9-2a8.47,8.47,0,0,1,5.67,2.17l2.34-3.09a11,11,0,0,0-7.71-2.76c-4.66,0-7.51,2.67-7.51,6,0,4.42,4.16,5.31,7.39,6,2.29.53,4,1,4,2.52,0,1.13-1.13,2.23-3.45,2.23a8.72,8.72,0,0,1-6.29-2.67Zm-11.66,2.79h4.06V111.44H195.5v12.82l-9.17-12.82H182v19.79h4.22V117.94Zm-26-9.88c0,3.68-2.37,6.5-6,6.5s-6-2.82-6-6.5,2.34-6.5,6-6.5,6,2.79,6,6.5m-16.35,0a10.34,10.34,0,1,0,10.33-10.24,9.94,9.94,0,0,0-10.33,10.24m-12.22,9.88h4.21V111.44h-4.21Zm-17.74,0h4.24V115.15h5.76v-3.71H117.56v3.71h5.79Zm-31.21-7.89c0,4.86,2.81,8.25,8.87,8.25s8.81-3.36,8.81-8.28V111.44h-4.27v11.75c0,2.76-1.52,4.66-4.54,4.66s-4.6-1.9-4.6-4.66V111.44H92.14Zm-19.85,7.89H84.87v-3.71H76.5V111.44H72.29ZM60,121.35c0,3.68-2.38,6.5-6,6.5s-6-2.82-6-6.5,2.34-6.5,6-6.5,6,2.79,6,6.5m-16.35,0a9.94,9.94,0,0,0,10.32,10.24,10.24,10.24,0,1,0,0-20.48A9.94,9.94,0,0,0,43.6,121.35m-23.26,7.09a11.4,11.4,0,0,0,8.39,3.15c5.35,0,7.93-2.73,7.93-6.35,0-4.39-4.16-5.37-7.42-6.11-2.29-.54-3.95-.95-3.95-2.29,0-1.19,1-2,2.91-2A8.48,8.48,0,0,1,33.87,117l2.34-3.09a11,11,0,0,0-7.71-2.76c-4.66,0-7.51,2.67-7.51,6,0,4.42,4.15,5.31,7.39,6,2.28.53,4,1,4,2.52,0,1.13-1.12,2.23-3.44,2.23a8.7,8.7,0,0,1-6.29-2.67Z"/><path class="cls-2" d="M415.53,91.73h9.35V89.66H418V78.54h-2.45Zm-6,0H412V78.54h-2.45Zm-11.33-5L400.65,81l2.49,5.77Zm7.09,5h2.57l-6-13.19h-2.41l-5.94,13.19h2.52l1.3-3H404Zm-17.89,0h2.45V80.61h4.38V78.54H383v2.07h4.37Zm-12.85-2V86h6.37V84h-6.37V80.59h7.18v-2h-9.63V91.73H382v-2Zm-7.66-6.45a2.4,2.4,0,0,1-.82,2,3.75,3.75,0,0,1-2.44.69h-2.86V80.61h2.86a3.81,3.81,0,0,1,2.44.68,2.36,2.36,0,0,1,.82,1.94m2.7,8.5-3-4.33a4.4,4.4,0,0,0,2.08-1.61,4.48,4.48,0,0,0,.72-2.56,4.57,4.57,0,0,0-.67-2.51,4.44,4.44,0,0,0-2-1.62,7.37,7.37,0,0,0-3-.56H358.3V91.73h2.45V87.89h3l.51,0,2.69,3.86Z"/><path class="cls-2" d="M484.93,49.72h-2.41l-3.9,6.43-3.87-6.43h-2.62l5.19,8.58v4.62h2.45V58.26Zm-19.34,13.2H468V51.8h4.37V49.72H461.22V51.8h4.37Zm-8.69,0h2.45V49.72H456.9Zm-11.29,0H455V60.84h-6.9V49.72h-2.45Zm-11.33-5,2.47-5.77,2.49,5.77Zm7.09,5h2.56L438,49.72h-2.42l-5.93,13.2h2.52l1.3-3.06h6.6Zm-17.89,0h2.45V51.8h4.37V49.72H419.11V51.8h4.37Zm-8.69,0h2.45V49.72h-2.45ZM406.61,57h-2.86V51.8h2.86a3.71,3.71,0,0,1,2.43.68,2.68,2.68,0,0,1,0,3.88,3.76,3.76,0,0,1-2.43.68m.11-7.32h-5.43v13.2h2.46V59.11h3a7.42,7.42,0,0,0,3-.56,4.34,4.34,0,0,0,2-1.64,4.94,4.94,0,0,0,0-5,4.36,4.36,0,0,0-2-1.62,7.25,7.25,0,0,0-3-.57M393.53,63.11a7.39,7.39,0,0,0,2.94-.53,4.07,4.07,0,0,0,1.8-1.41,3.46,3.46,0,0,0,.59-2,2.93,2.93,0,0,0-.67-2A4,4,0,0,0,396.58,56a17.67,17.67,0,0,0-2.41-.71c-.72-.17-1.28-.33-1.7-.47a3.11,3.11,0,0,1-1-.56,1.19,1.19,0,0,1-.41-.93,1.52,1.52,0,0,1,.71-1.3,3.79,3.79,0,0,1,2.16-.49,6.9,6.9,0,0,1,1.82.26,7.62,7.62,0,0,1,1.81.78l.78-1.91a6.76,6.76,0,0,0-2-.86,9.53,9.53,0,0,0-2.38-.31,7.31,7.31,0,0,0-2.93.53,4.06,4.06,0,0,0-1.79,1.43,3.54,3.54,0,0,0-.59,2,3,3,0,0,0,.67,2.07,4,4,0,0,0,1.6,1.12,19.85,19.85,0,0,0,2.44.72c.72.17,1.28.33,1.7.47a3.09,3.09,0,0,1,1,.57,1.22,1.22,0,0,1,.4.94,1.41,1.41,0,0,1-.73,1.24,4.1,4.1,0,0,1-2.19.47,7.28,7.28,0,0,1-2.37-.4,6.69,6.69,0,0,1-2-1.05l-.84,1.9a6.09,6.09,0,0,0,2.25,1.15,10,10,0,0,0,2.95.44M379.73,61a4.69,4.69,0,0,1-2.37-.6,4.18,4.18,0,0,1-1.66-1.65,5,5,0,0,1,0-4.77,4.21,4.21,0,0,1,1.66-1.66,4.69,4.69,0,0,1,2.37-.6,4.75,4.75,0,0,1,2.38.6,4.25,4.25,0,0,1,1.65,1.66,5,5,0,0,1,0,4.77,4.22,4.22,0,0,1-1.65,1.65,4.75,4.75,0,0,1-2.38.6m0,2.15a7.57,7.57,0,0,0,3.64-.88,6.43,6.43,0,0,0,2.54-2.42,7,7,0,0,0,0-7,6.5,6.5,0,0,0-2.54-2.42,8,8,0,0,0-7.28,0,6.53,6.53,0,0,0-2.54,2.43,7,7,0,0,0,0,7,6.39,6.39,0,0,0,2.54,2.43,7.59,7.59,0,0,0,3.64.88M367.57,49.72v5.45h-6.82V49.72H358.3v13.2h2.45V57.26h6.82v5.66H370V49.72Z"/><path class="cls-2" d="M450.68,31.47a5.31,5.31,0,0,1-2.71.67,5,5,0,0,1-2.46-.6,4.31,4.31,0,0,1-1.7-1.66,4.6,4.6,0,0,1-.61-2.37,4.73,4.73,0,0,1,.61-2.42,4.26,4.26,0,0,1,1.7-1.64,5.25,5.25,0,0,1,2.48-.58,4.92,4.92,0,0,1,3.63,1.51l1.55-1.51a6,6,0,0,0-2.28-1.6,7.92,7.92,0,0,0-3-.55,7.51,7.51,0,0,0-3.66.88A6.49,6.49,0,0,0,441.65,24a7.06,7.06,0,0,0,0,7,6.55,6.55,0,0,0,2.55,2.43,7.55,7.55,0,0,0,3.63.87,9,9,0,0,0,2.79-.43A7.38,7.38,0,0,0,453,32.62V27.36h-2.32Zm-15-10.56v8.93l-7.28-8.93h-2V34.1h2.43V25.17l7.28,8.93h2V20.91ZM420.39,34.1h2.45V20.91h-2.45ZM407.27,32V23h3.2a5.64,5.64,0,0,1,2.56.56,4.06,4.06,0,0,1,1.7,1.58,5.12,5.12,0,0,1,0,4.77,4.08,4.08,0,0,1-1.7,1.59,5.64,5.64,0,0,1-2.56.55Zm-2.45,2.07h5.77a8.24,8.24,0,0,0,3.75-.82A6,6,0,0,0,416.88,31a7,7,0,0,0,0-6.92,6.08,6.08,0,0,0-2.54-2.32,8.24,8.24,0,0,0-3.75-.82h-5.77Zm-11.29,0h9.35V32H396V20.91h-2.45Zm-6,0H390V20.91h-2.45Zm-9.2.19a5.72,5.72,0,0,0,4.25-1.53,6,6,0,0,0,1.52-4.4V20.91h-2.42v7.35q0,3.89-3.33,3.88T375,28.26V20.91h-2.45v7.45a6,6,0,0,0,1.53,4.4,5.76,5.76,0,0,0,4.26,1.53m-13.61-2.11h-4V28.37h4c1.9,0,2.84.64,2.84,1.91s-.94,1.9-2.84,1.9m-.49-9.35a3.61,3.61,0,0,1,2,.46,1.55,1.55,0,0,1,.69,1.37,1.53,1.53,0,0,1-.69,1.35,3.52,3.52,0,0,1-2,.46h-3.47V22.83Zm3.43,4.41a3,3,0,0,0,1.24-1.17,3.31,3.31,0,0,0,.46-1.73,3,3,0,0,0-1.27-2.52,6.06,6.06,0,0,0-3.6-.91H358.3V34.1h6.56a6.64,6.64,0,0,0,3.84-.93A3,3,0,0,0,370,30.52a3.3,3.3,0,0,0-.64-2.08,3.44,3.44,0,0,0-1.73-1.2"/><path class="cls-1" d="M481.11,162.39v8.24l-6.71-8.24h-1.86v12.17h2.24v-8.24l6.71,8.24h1.87V162.39Zm-17.53,10.36a4.44,4.44,0,0,1-2.19-.54,4,4,0,0,1-1.53-1.53,4.42,4.42,0,0,1-.56-2.2,4.36,4.36,0,0,1,.56-2.2,4,4,0,0,1,1.53-1.54,4.71,4.71,0,0,1,4.38,0,4,4,0,0,1,1.53,1.54,4.36,4.36,0,0,1,.56,2.2,4.42,4.42,0,0,1-.56,2.2,4,4,0,0,1-1.53,1.53,4.44,4.44,0,0,1-2.19.54m0,2a7,7,0,0,0,3.36-.81,6.1,6.1,0,0,0,2.35-2.24,6.51,6.51,0,0,0,0-6.43,6.1,6.1,0,0,0-2.35-2.24,7.37,7.37,0,0,0-6.72,0,6,6,0,0,0-2.34,2.25,6.4,6.4,0,0,0,0,6.41,6,6,0,0,0,2.34,2.25,7,7,0,0,0,3.36.81m-11.24-.18h2.27V162.39h-2.27Zm-8,0h2.27V164.3h4v-1.91H440.31v1.91h4ZM432,170l2.28-5.32L436.6,170Zm6.54,4.59h2.37l-5.5-12.17h-2.23l-5.48,12.17h2.34l1.2-2.82h6.08Zm-16.28.18a6.8,6.8,0,0,0,2.71-.49,3.65,3.65,0,0,0,1.66-1.3,3.2,3.2,0,0,0,.55-1.83,2.73,2.73,0,0,0-.61-1.88,3.85,3.85,0,0,0-1.49-1,15.84,15.84,0,0,0-2.23-.66c-.66-.16-1.18-.3-1.56-.43a2.69,2.69,0,0,1-.95-.52,1.1,1.1,0,0,1-.38-.86,1.41,1.41,0,0,1,.66-1.2,3.53,3.53,0,0,1,2-.45,6,6,0,0,1,1.69.25,7.17,7.17,0,0,1,1.67.71l.71-1.76a6.08,6.08,0,0,0-1.86-.8,9,9,0,0,0-2.19-.28,6.8,6.8,0,0,0-2.71.49A3.69,3.69,0,0,0,418.3,164a3.23,3.23,0,0,0-.55,1.84,2.79,2.79,0,0,0,.62,1.9,3.66,3.66,0,0,0,1.48,1,17.89,17.89,0,0,0,2.25.66c.66.16,1.18.31,1.56.43a2.71,2.71,0,0,1,.95.53,1.14,1.14,0,0,1,.38.87,1.33,1.33,0,0,1-.67,1.14,3.78,3.78,0,0,1-2,.44,6.63,6.63,0,0,1-2.18-.38,6.26,6.26,0,0,1-1.84-1l-.78,1.76a5.71,5.71,0,0,0,2.08,1.06,9.47,9.47,0,0,0,2.72.4m-9.32-.18h2.26V162.39H413Zm-8,0h2.26V164.3h4v-1.91H400.93v1.91h4Zm-8,0h2.26V162.39H397Zm-5.51-12.17v8.24l-6.72-8.24h-1.86v12.17h2.25v-8.24l6.71,8.24h1.86V162.39Zm-19,7.58,2.28-5.32L377,170Zm6.54,4.59h2.36l-5.49-12.17h-2.23l-5.48,12.17h2.33l1.2-2.82h6.09Zm-16.28.18a6.8,6.8,0,0,0,2.71-.49A3.7,3.7,0,0,0,367,173a3.2,3.2,0,0,0,.55-1.83,2.68,2.68,0,0,0-.62-1.88,3.74,3.74,0,0,0-1.48-1,15.84,15.84,0,0,0-2.23-.66c-.66-.16-1.18-.3-1.56-.43a2.69,2.69,0,0,1-.95-.52,1.1,1.1,0,0,1-.38-.86,1.41,1.41,0,0,1,.66-1.2,3.51,3.51,0,0,1,2-.45,6,6,0,0,1,1.68.25,7,7,0,0,1,1.67.71l.72-1.76a6.08,6.08,0,0,0-1.86-.8,9,9,0,0,0-2.2-.28,6.78,6.78,0,0,0-2.7.49,3.69,3.69,0,0,0-1.65,1.31,3.23,3.23,0,0,0-.55,1.84,2.79,2.79,0,0,0,.62,1.9,3.66,3.66,0,0,0,1.48,1,17.89,17.89,0,0,0,2.25.66c.66.16,1.18.31,1.56.43a2.71,2.71,0,0,1,.95.53,1.14,1.14,0,0,1,.38.87,1.33,1.33,0,0,1-.67,1.14,3.8,3.8,0,0,1-2,.44,6.63,6.63,0,0,1-2.18-.38,6.26,6.26,0,0,1-1.84-1l-.78,1.76a5.71,5.71,0,0,0,2.08,1.06,9.47,9.47,0,0,0,2.72.4m-13.84,3.2h2V161.66h-2Zm-12-3.2a6.8,6.8,0,0,0,2.71-.49,3.7,3.7,0,0,0,1.66-1.3,3.2,3.2,0,0,0,.55-1.83,2.68,2.68,0,0,0-.62-1.88,3.74,3.74,0,0,0-1.48-1,15.84,15.84,0,0,0-2.23-.66c-.66-.16-1.18-.3-1.56-.43a2.69,2.69,0,0,1-.95-.52,1.1,1.1,0,0,1-.38-.86,1.41,1.41,0,0,1,.66-1.2,3.51,3.51,0,0,1,2-.45,6,6,0,0,1,1.68.25,7,7,0,0,1,1.67.71l.72-1.76a6.08,6.08,0,0,0-1.86-.8,9,9,0,0,0-2.2-.28,6.78,6.78,0,0,0-2.7.49,3.69,3.69,0,0,0-1.65,1.31,3.23,3.23,0,0,0-.55,1.84,2.79,2.79,0,0,0,.62,1.9,3.66,3.66,0,0,0,1.48,1,17.89,17.89,0,0,0,2.25.66c.66.16,1.18.31,1.56.43a2.71,2.71,0,0,1,.95.53,1.14,1.14,0,0,1,.38.87,1.33,1.33,0,0,1-.67,1.14,3.8,3.8,0,0,1-2,.44,6.63,6.63,0,0,1-2.18-.38,6.26,6.26,0,0,1-1.84-1l-.78,1.76a5.71,5.71,0,0,0,2.08,1.06,9.47,9.47,0,0,0,2.72.4m-8.57-8a2.2,2.2,0,0,1-.77,1.8,3.46,3.46,0,0,1-2.24.63h-2.65V164.3h2.65a3.46,3.46,0,0,1,2.24.63,2.17,2.17,0,0,1,.77,1.79m2.48,7.84-2.8-4a3.91,3.91,0,0,0,1.92-1.48,4.09,4.09,0,0,0,.67-2.36,4.13,4.13,0,0,0-.62-2.31,4.05,4.05,0,0,0-1.8-1.5,6.73,6.73,0,0,0-2.76-.52h-5v12.17h2.26V171h3.22l2.49,3.56Zm-15.95,0h2.26V162.39h-2.26ZM304.37,170l2.28-5.32L309,170Zm6.54,4.59h2.37l-5.5-12.17h-2.23l-5.48,12.17h2.34l1.2-2.82h6.08Zm-16.05-5.42h-2.65V164.3h2.65a3.46,3.46,0,0,1,2.24.63,2.47,2.47,0,0,1,0,3.58,3.46,3.46,0,0,1-2.24.63m.1-6.75h-5v12.17h2.26v-3.51H295a6.7,6.7,0,0,0,2.76-.52,4,4,0,0,0,1.8-1.51,4.59,4.59,0,0,0,0-4.61,4.05,4.05,0,0,0-1.8-1.5,6.7,6.7,0,0,0-2.76-.52m-14.4,10.28v-3.36h5.88v-1.86h-5.88v-3.17h6.63v-1.89H278.3v12.17h9.13v-1.89Zm-7.06-5.95a2.2,2.2,0,0,1-.77,1.8,3.44,3.44,0,0,1-2.24.63h-2.64V164.3h2.64a3.44,3.44,0,0,1,2.24.63,2.17,2.17,0,0,1,.77,1.79m2.49,7.84-2.8-4a4,4,0,0,0,1.92-1.48,4.52,4.52,0,0,0,0-4.67,4.05,4.05,0,0,0-1.8-1.5,6.7,6.7,0,0,0-2.76-.52h-5v12.17h2.26V171h3.21l2.49,3.56Zm-20.47,3.38h2V161.66h-2Zm-14.2-5.27v-3.36h5.88v-1.86h-5.88v-3.17H248v-1.89h-8.89v12.17h9.13v-1.89Zm-9.27,2.07a7,7,0,0,0,2.74-.53,5.49,5.49,0,0,0,2.1-1.51l-1.46-1.39a4.25,4.25,0,0,1-3.25,1.44,4.62,4.62,0,0,1-2.25-.54,4,4,0,0,1-1.55-1.53,4.7,4.7,0,0,1,0-4.41,4,4,0,0,1,1.55-1.53,4.62,4.62,0,0,1,2.25-.54,4.26,4.26,0,0,1,3.25,1.42l1.46-1.37a5.54,5.54,0,0,0-2.09-1.51,7.27,7.27,0,0,0-6.06.28,6.06,6.06,0,0,0-3.19,5.46,6.2,6.2,0,0,0,.84,3.21,6,6,0,0,0,2.33,2.24,6.84,6.84,0,0,0,3.33.81M220.9,162.39v8.24l-6.71-8.24h-1.86v12.17h2.24v-8.24l6.72,8.24h1.86V162.39Zm-19,7.58,2.28-5.32,2.29,5.32Zm6.54,4.59h2.36l-5.49-12.17h-2.23l-5.48,12.17h2.33l1.2-2.82h6.09Zm-14.63-12.17v8.24l-6.71-8.24h-1.86v12.17h2.24v-8.24l6.71,8.24H196V162.39Zm-18,10.28v-3.36h5.88v-1.86h-5.88v-3.17h6.63v-1.89h-8.89v12.17h9.13v-1.89Zm-10.26,1.89h2.26V164.3h4v-1.91H161.53v1.91h4Zm-8-12.17v8.24l-6.71-8.24H149v12.17h2.25v-8.24l6.71,8.24h1.86V162.39Zm-14.12,12.17h2.26V162.39h-2.26ZM133,170l2.28-5.32,2.3,5.32Zm6.54,4.59h2.37l-5.5-12.17h-2.22l-5.48,12.17H131l1.2-2.82h6.09Zm-12.4,0,0-12.17h-1.86l-4.74,8.07-4.84-8.07h-1.86v12.17H116v-8l4,6.57h1l4-6.68v8.07Zm-23.39,3.38h2V161.66h-2Zm-14.19-5.27v-3.36h5.88v-1.86H89.56v-3.17h6.62v-1.89H87.3v12.17h9.13v-1.89Zm-9.27,2.07a7,7,0,0,0,2.74-.53,5.46,5.46,0,0,0,2.09-1.51l-1.46-1.39a4.23,4.23,0,0,1-3.25,1.44,4.58,4.58,0,0,1-2.24-.54,3.93,3.93,0,0,1-1.55-1.53,4.62,4.62,0,0,1,0-4.41,3.93,3.93,0,0,1,1.55-1.53,4.58,4.58,0,0,1,2.24-.54,4.25,4.25,0,0,1,3.25,1.42l1.46-1.37A5.5,5.5,0,0,0,83,162.74a7,7,0,0,0-2.74-.53A6.89,6.89,0,0,0,77,163a6.07,6.07,0,0,0-2.34,2.24,6.22,6.22,0,0,0-.85,3.22,6.11,6.11,0,0,0,.85,3.21A6,6,0,0,0,77,173.93a6.84,6.84,0,0,0,3.33.81m-11.19-.18h2.27V162.39H69.1Zm-3.54-12.17-4.09,9.39-4-9.39H55l5.33,12.17h2.22l5.31-12.17Zm-13.67,4.33a2.2,2.2,0,0,1-.77,1.8,3.46,3.46,0,0,1-2.24.63H46.23V164.3h2.65a3.46,3.46,0,0,1,2.24.63,2.17,2.17,0,0,1,.77,1.79m2.48,7.84-2.8-4a3.91,3.91,0,0,0,1.92-1.48,4.09,4.09,0,0,0,.67-2.36,4.13,4.13,0,0,0-.62-2.31,4.05,4.05,0,0,0-1.8-1.5,6.7,6.7,0,0,0-2.76-.52H44v12.17h2.26V171h3.22l2.49,3.56Zm-19.79-1.89v-3.36h5.88v-1.86H34.58v-3.17h6.63v-1.89H32.32v12.17h9.13v-1.89Zm-9.43,2.07a6.89,6.89,0,0,0,2.72-.49,3.76,3.76,0,0,0,1.66-1.3,3.28,3.28,0,0,0,.55-1.83,2.73,2.73,0,0,0-.62-1.88,3.77,3.77,0,0,0-1.49-1,15.84,15.84,0,0,0-2.23-.66c-.66-.16-1.18-.3-1.56-.43a2.79,2.79,0,0,1-.95-.52,1.09,1.09,0,0,1-.37-.86,1.42,1.42,0,0,1,.65-1.2,3.53,3.53,0,0,1,2-.45,6,6,0,0,1,1.69.25,7.17,7.17,0,0,1,1.67.71l.71-1.76a6.08,6.08,0,0,0-1.86-.8,9,9,0,0,0-2.19-.28,6.8,6.8,0,0,0-2.71.49A3.8,3.8,0,0,0,21.16,164a3.31,3.31,0,0,0-.55,1.84,2.79,2.79,0,0,0,.62,1.9,3.73,3.73,0,0,0,1.48,1,17.89,17.89,0,0,0,2.25.66c.66.16,1.18.31,1.57.43a2.8,2.8,0,0,1,.95.53,1.16,1.16,0,0,1,.37.87,1.3,1.3,0,0,1-.67,1.14,3.78,3.78,0,0,1-2,.44,6.67,6.67,0,0,1-2.18-.38,6.19,6.19,0,0,1-1.83-1l-.79,1.76a5.79,5.79,0,0,0,2.08,1.06,9.52,9.52,0,0,0,2.72.4"/></svg>