<svg id="Layer_1" data-name="Layer 1" xmlns="http://www.w3.org/2000/svg" xmlns:xlink="http://www.w3.org/1999/xlink" viewBox="0 0 341.61 130.7"><defs><style>.cls-1{fill:none;}.cls-2{fill:#004379;}.cls-3{clip-path:url(#clip-path);}.cls-4{fill:#00afe9;}</style><clipPath id="clip-path"><rect class="cls-1" x="-64.65" y="-71.28" width="841.89" height="595.28"/></clipPath></defs><title>navbar-logo</title><polygon class="cls-2" points="280 2.91 254.76 16.46 254.76 127.03 254.81 127.03 254.81 44.02 270.83 55.1 270.83 127.03 280 127.03 280 2.91"/><polygon class="cls-2" points="327.01 126.95 337.05 126.95 337.05 103.06 327.01 97.31 327.01 126.95"/><path class="cls-2" d="M311.61,72.73l.14,1.46-.14,1Zm-9.16,7L289,86.24V127h22.76V73.63l11.82,8.17v-25L302.45,43.68Z"/><polygon class="cls-2" points="227.43 56.78 227.43 127.03 254.81 127.03 254.81 43.93 227.43 56.78"/><g class="cls-3"><path class="cls-4" d="M45,70.66a6.79,6.79,0,0,1-4.74,3.76,16.06,16.06,0,0,1-3.84.51c-4.89.06-9.78,0-14.67,0l-.42,0V58.6a3.15,3.15,0,0,1,.43-.05c5.11,0,10.22,0,15.32,0a10.46,10.46,0,0,1,4.68,1.11,6.83,6.83,0,0,1,3.82,5,9.45,9.45,0,0,1-.58,6M55.08,53c-1-.55-2.1-1-3.2-1.48a1.57,1.57,0,0,1,.13-.1l.63-.33A16.61,16.61,0,0,0,61.7,39a18.84,18.84,0,0,0-1-10.4,16.79,16.79,0,0,0-10-9.6,31,31,0,0,0-11.65-2H27.69v13q4.69,0,9.38,0a10.83,10.83,0,0,1,4.68,1.07A6.64,6.64,0,0,1,45.57,36,8.86,8.86,0,0,1,45,41.78a6.76,6.76,0,0,1-4.74,3.64,17.72,17.72,0,0,1-3.84.49c-4.89.06-9.78,0-14.67,0l-.42,0H5.38V88h34c1.5,0,3,0,4.5-.12a24.86,24.86,0,0,0,9.6-2.48,17.08,17.08,0,0,0,8.47-8.94,21.73,21.73,0,0,0,1.26-12.06A15.26,15.26,0,0,0,55.08,53"/><path class="cls-4" d="M5.38,39.41H21.2V17H6c-.21,0-.42,0-.62,0Z"/><path class="cls-4" d="M205.39,41.9a26.33,26.33,0,0,0-.66-9.88A18.84,18.84,0,0,0,192.93,19a30,30,0,0,0-11.28-1.9H171.3v13q4.62,0,9.24,0a10.69,10.69,0,0,1,4.68,1.07A6.61,6.61,0,0,1,189,36a8.79,8.79,0,0,1-.57,5.78,6.78,6.78,0,0,1-4.74,3.64,17.72,17.72,0,0,1-3.84.49c-4.89.05-9.78,0-14.67,0H148.7V88h16.08V58.45h.77c3.18,0,6.35,0,9.53,0a1.08,1.08,0,0,1,1.16.68c4.08,8.11,9.7,20.27,13.79,28.39a.75.75,0,0,0,.8.48h16.62l.64,0c-4.88-9-11.22-20.47-16.05-29.4.93-.39,1.83-.73,2.69-1.14a17.93,17.93,0,0,0,8.39-7.9,21,21,0,0,0,2.27-7.61"/><path class="cls-4" d="M164.79,30.12h0V17.06H148.7V39.41h16.09Z"/><polygon class="cls-4" points="135.51 87.99 135.51 17.08 119.35 17.08 119.35 45.94 119.35 45.94 89.96 45.94 73.92 45.94 73.92 87.99 89.99 87.99 89.99 58.49 119.37 58.49 119.37 87.99 135.51 87.99"/><rect class="cls-4" x="73.92" y="17.06" width="16.05" height="22.35"/><path class="cls-4" d="M192.38,124.24a11.46,11.46,0,0,0,8.42,3.15c5.36,0,7.95-2.74,7.95-6.37,0-4.4-4.17-5.38-7.44-6.13-2.29-.53-4-1-4-2.29,0-1.19,1-2,2.92-2a8.46,8.46,0,0,1,5.68,2.17l2.35-3.09a11,11,0,0,0-7.74-2.77c-4.67,0-7.52,2.68-7.52,6,0,4.43,4.16,5.33,7.4,6.07,2.29.54,4,1,4,2.53,0,1.13-1.13,2.23-3.45,2.23A8.7,8.7,0,0,1,194.7,121ZM180.69,127h4.08V107.19h-4.23V120l-9.19-12.85H167V127h4.23V113.7Zm-26.07-9.91c0,3.69-2.37,6.52-6,6.52s-6-2.83-6-6.52,2.35-6.51,6-6.51,6,2.8,6,6.51m-16.39,0a10.37,10.37,0,1,0,10.36-10.26,10,10,0,0,0-10.36,10.26M126,127h4.23V107.19H126Zm-17.79,0h4.26V110.91h5.77v-3.72H102.38v3.72h5.8Zm-31.3-7.91c0,4.88,2.83,8.27,8.9,8.27s8.83-3.36,8.83-8.3v-11.9H90.33V119c0,2.77-1.52,4.67-4.55,4.67s-4.61-1.9-4.61-4.67V107.19H76.88ZM57,127H69.59v-3.72H61.2V107.19H57ZM44.6,117.12c0,3.69-2.38,6.52-6,6.52s-6-2.83-6-6.52,2.35-6.51,6-6.51,6,2.8,6,6.51m-16.39,0a10,10,0,0,0,10.35,10.27,10.27,10.27,0,1,0,0-20.53,10,10,0,0,0-10.35,10.26M4.88,124.24a11.44,11.44,0,0,0,8.42,3.15c5.35,0,7.94-2.74,7.94-6.37,0-4.4-4.16-5.38-7.44-6.13-2.29-.53-4-1-4-2.29,0-1.19,1-2,2.91-2a8.47,8.47,0,0,1,5.69,2.17l2.35-3.09a11,11,0,0,0-7.74-2.77c-4.67,0-7.53,2.68-7.53,6,0,4.43,4.17,5.33,7.41,6.07,2.29.54,4,1,4,2.53,0,1.13-1.13,2.23-3.45,2.23A8.7,8.7,0,0,1,7.2,121Z"/></g></svg>