<svg id="Layer_1" data-name="Layer 1" xmlns="http://www.w3.org/2000/svg" xmlns:xlink="http://www.w3.org/1999/xlink" viewBox="0 0 639.07 509.22"><defs><style>.cls-1,.cls-11,.cls-13,.cls-15,.cls-16,.cls-17,.cls-18,.cls-19,.cls-20,.cls-21,.cls-3,.cls-4,.cls-6,.cls-7,.cls-8,.cls-9{fill:none;}.cls-2{fill:#00afe9;}.cls-11,.cls-13,.cls-15,.cls-16,.cls-17,.cls-18,.cls-19,.cls-20,.cls-21,.cls-3,.cls-4,.cls-6,.cls-7,.cls-8,.cls-9{stroke:#575756;}.cls-11,.cls-15,.cls-17,.cls-3,.cls-4,.cls-6,.cls-7{stroke-miterlimit:10;}.cls-3,.cls-4{stroke-width:1.03px;}.cls-4,.cls-6,.cls-7{stroke-linecap:square;}.cls-5{fill:#575756;}.cls-6{stroke-width:1.05px;}.cls-7{stroke-width:0.84px;}.cls-8{stroke-width:1.08px;}.cls-9{stroke-width:1.44px;}.cls-10{fill:#009ade;}.cls-11{stroke-width:1.19px;}.cls-12{fill:#004379;}.cls-13{stroke-width:0.94px;}.cls-14{clip-path:url(#clip-path);}.cls-15{stroke-width:1px;}.cls-16{stroke-width:1.04px;}.cls-17{stroke-width:1.03px;}.cls-18{stroke-width:0.98px;}.cls-19{stroke-width:0.86px;}.cls-20{stroke-width:0.8px;}.cls-21{stroke-linecap:round;stroke-width:0.98px;}</style><clipPath id="clip-path"><rect class="cls-1" x="-101.41" y="-35.1" width="841.89" height="595.28"/></clipPath></defs><title>approach-diagram</title><polygon class="cls-2" points="491.65 315.07 505.7 323.44 518.85 315.43 504.89 307.16 491.65 315.07"/><path class="cls-3" d="M533,312.2v27.4l-27.8,16.15-27.8-16.15V307.29l27.8-16.15L533,307.29l-13.9,8.08-13.9,8.07V339.6m0,3.86v12.29"/><path class="cls-4" d="M491.77,331.85l13.37,7.77,13.91-8.09V321.08m-.39-5.92-13.52-7.9-13.92,8.09v11"/><path class="cls-3" d="M482.32,310.2l8.94,5.2,13.88,8.07m0-16.14V291.19m-13.23,40.16-14.53,8.26m50.94-2.73-9-5.34"/><path class="cls-5" d="M548.93,320.84H552a4.5,4.5,0,0,1,2,.44,3.21,3.21,0,0,1,1.36,1.24,3.49,3.49,0,0,1,.49,1.86,3.43,3.43,0,0,1-.49,1.85,3.23,3.23,0,0,1-1.36,1.25,4.5,4.5,0,0,1-2,.44h-3.1Zm3,6a3,3,0,0,0,1.37-.29,2.26,2.26,0,0,0,.91-.85,2.55,2.55,0,0,0,.31-1.28,2.53,2.53,0,0,0-.31-1.28,2.2,2.2,0,0,0-.91-.85A3,3,0,0,0,552,322h-1.72v4.85Z"/><path class="cls-5" d="M562.59,326.82v1.1h-5.31v-7.08h5.17v1.1H558.6v1.84H562v1.08H558.6v2Z"/><path class="cls-5" d="M564.67,327.79a3.51,3.51,0,0,1-1.21-.62l.46-1a3.66,3.66,0,0,0,1.06.56,4,4,0,0,0,1.27.22,2.17,2.17,0,0,0,1.18-.26.76.76,0,0,0,.39-.66.62.62,0,0,0-.22-.5,1.34,1.34,0,0,0-.55-.31c-.22-.08-.53-.16-.91-.26a9.4,9.4,0,0,1-1.31-.38,2.24,2.24,0,0,1-.86-.6,1.61,1.61,0,0,1-.36-1.11,1.89,1.89,0,0,1,.32-1.06,2.09,2.09,0,0,1,1-.77,3.87,3.87,0,0,1,1.57-.28,5,5,0,0,1,1.28.16,3.33,3.33,0,0,1,1.08.47l-.41,1a4.67,4.67,0,0,0-1-.42,3.74,3.74,0,0,0-1-.14,2.06,2.06,0,0,0-1.15.26.8.8,0,0,0-.38.7.63.63,0,0,0,.22.5,1.38,1.38,0,0,0,.55.3c.22.07.52.16.91.25a9.89,9.89,0,0,1,1.29.38,2.16,2.16,0,0,1,.86.6,1.6,1.6,0,0,1,.36,1.1,1.81,1.81,0,0,1-.32,1.06,2.2,2.2,0,0,1-1,.76,4.1,4.1,0,0,1-1.58.28A5.59,5.59,0,0,1,564.67,327.79Z"/><path class="cls-5" d="M570.42,320.84h1.31v7.08h-1.31Z"/><path class="cls-5" d="M578.47,324.3h1.25v2.82a4.1,4.1,0,0,1-1.28.67A5,5,0,0,1,577,328a4.07,4.07,0,0,1-2-.47,3.69,3.69,0,0,1-1.37-5,3.5,3.5,0,0,1,1.37-1.3,4.15,4.15,0,0,1,2-.47,4.45,4.45,0,0,1,1.62.29,3.22,3.22,0,0,1,1.22.86l-.83.81a2.66,2.66,0,0,0-2-.81,2.75,2.75,0,0,0-1.33.32,2.24,2.24,0,0,0-.91.87,2.54,2.54,0,0,0-.33,1.3,2.45,2.45,0,0,0,.33,1.27,2.29,2.29,0,0,0,.91.89,2.64,2.64,0,0,0,1.32.33,2.84,2.84,0,0,0,1.45-.37Z"/><path class="cls-5" d="M587.74,320.84v7.08h-1.09l-3.9-4.79v4.79h-1.3v-7.08h1.08l3.9,4.79v-4.79Z"/><polygon class="cls-6" points="377 442.2 367.85 457.04 441.06 457.04 431.91 442.2 377 442.2"/><rect class="cls-6" x="377.58" y="405.04" width="53.61" height="34.16"/><polygon class="cls-2" points="397.6 448.5 395.23 453.46 414.2 453.46 411.83 448.5 397.6 448.5"/><polygon class="cls-7" points="397.6 448.5 395.23 453.46 414.2 453.46 411.83 448.5 397.6 448.5"/><line class="cls-8" x1="366.7" y1="459.95" x2="442.21" y2="459.95"/><line class="cls-9" x1="384.67" y1="417.63" x2="393.21" y2="411.91"/><line class="cls-9" x1="383.32" y1="423.85" x2="403.06" y2="410.73"/><path class="cls-5" d="M376.77,472.39h3.1a4.5,4.5,0,0,1,2,.44,3.23,3.23,0,0,1,1.36,1.25,3.43,3.43,0,0,1,.49,1.85,3.49,3.49,0,0,1-.49,1.86,3.21,3.21,0,0,1-1.36,1.24,4.5,4.5,0,0,1-2,.44h-3.1Zm3,6a3,3,0,0,0,1.37-.3,2.2,2.2,0,0,0,.91-.85,2.53,2.53,0,0,0,.31-1.28,2.55,2.55,0,0,0-.31-1.28,2.26,2.26,0,0,0-.91-.85,3,3,0,0,0-1.37-.3h-1.72v4.86Z"/><path class="cls-5" d="M390.43,478.37v1.1h-5.31v-7.08h5.17v1.1h-3.85v1.85h3.41v1.08h-3.41v1.95Z"/><path class="cls-5" d="M398.27,472.39l-3.09,7.08h-1.29l-3.09-7.08h1.42l2.36,5.46,2.37-5.46Z"/><path class="cls-5" d="M404.33,478.37v1.1H399v-7.08h5.17v1.1h-3.85v1.85h3.42v1.08h-3.42v1.95Z"/><path class="cls-5" d="M405.8,472.39h1.31v6h3.7v1.11h-5Z"/><path class="cls-5" d="M413.08,479.1a3.5,3.5,0,0,1-1.37-1.3,3.6,3.6,0,0,1-.49-1.87,3.51,3.51,0,0,1,1.86-3.17,4.28,4.28,0,0,1,3.9,0,3.69,3.69,0,0,1,1.37,5,3.5,3.5,0,0,1-1.37,1.3,4.28,4.28,0,0,1-3.9,0Zm3.22-1a2.24,2.24,0,0,0,.89-.89,2.65,2.65,0,0,0,0-2.56,2.24,2.24,0,0,0-.89-.89,2.68,2.68,0,0,0-2.54,0,2.24,2.24,0,0,0-.89.89,2.65,2.65,0,0,0,0,2.56,2.24,2.24,0,0,0,.89.89,2.68,2.68,0,0,0,2.54,0Z"/><path class="cls-5" d="M424.75,472.7a2.32,2.32,0,0,1,1.05.87,2.42,2.42,0,0,1,.36,1.34,2.46,2.46,0,0,1-.36,1.34,2.32,2.32,0,0,1-1.05.87,3.78,3.78,0,0,1-1.6.31h-1.6v2h-1.31v-7.08h2.91A3.78,3.78,0,0,1,424.75,472.7Zm-.36,3.25a1.43,1.43,0,0,0,0-2.08,2,2,0,0,0-1.3-.37h-1.54v2.82h1.54A2,2,0,0,0,424.39,476Z"/><polyline class="cls-8" points="177.93 300.6 126.85 300.6 126.85 350.67 177.07 350.67 177.07 333.05"/><polygon class="cls-10" points="153.73 341.14 139.64 322.38 144.71 318.57 154.35 331.41 178.26 306.78 182.81 311.2 153.73 341.14"/><polygon class="cls-11" points="153.73 341.14 139.64 322.38 144.71 318.57 154.35 331.41 178.26 306.78 182.81 311.2 153.73 341.14"/><path class="cls-5" d="M33.94,314.94H31.6v-1.11h6v1.11H35.26v6H33.94Z"/><path class="cls-5" d="M43.9,319.81v1.1H38.59v-7.08h5.17v1.1H39.91v1.84h3.41v1.09H39.91v1.95Z"/><path class="cls-5" d="M46,320.78a3.35,3.35,0,0,1-1.21-.62l.45-1a3.49,3.49,0,0,0,1.07.56,3.77,3.77,0,0,0,1.27.22,2.28,2.28,0,0,0,1.18-.25.78.78,0,0,0,.39-.67.67.67,0,0,0-.22-.5,1.55,1.55,0,0,0-.55-.31c-.22-.07-.53-.16-.91-.25a10.28,10.28,0,0,1-1.31-.39,2.24,2.24,0,0,1-.86-.6,1.61,1.61,0,0,1-.36-1.11,1.89,1.89,0,0,1,.32-1.06,2.15,2.15,0,0,1,1-.77,4,4,0,0,1,1.57-.28,5.54,5.54,0,0,1,1.28.16,3.68,3.68,0,0,1,1.08.47l-.42,1a4.38,4.38,0,0,0-1-.42,3.74,3.74,0,0,0-1-.14,2,2,0,0,0-1.16.27.79.79,0,0,0-.37.69.64.64,0,0,0,.21.5,1.53,1.53,0,0,0,.55.3c.23.08.53.16.91.26a9.79,9.79,0,0,1,1.3.37,2.29,2.29,0,0,1,.86.61,1.58,1.58,0,0,1,.36,1.09A1.81,1.81,0,0,1,50.1,320a2.13,2.13,0,0,1-1,.76,3.92,3.92,0,0,1-1.58.28A5.54,5.54,0,0,1,46,320.78Z"/><path class="cls-5" d="M53.07,314.94H50.72v-1.11h6v1.11H54.39v6H53.07Z"/><path class="cls-5" d="M57.72,313.83H59v7.08H57.72Z"/><path class="cls-5" d="M67.24,313.83v7.08H66.15l-3.9-4.79v4.79H61v-7.08H62l3.9,4.79v-4.79Z"/><path class="cls-5" d="M74,317.29h1.24v2.82a4,4,0,0,1-1.27.67,5.1,5.1,0,0,1-1.5.23,4.07,4.07,0,0,1-2-.47,3.47,3.47,0,0,1-1.36-1.3,3.75,3.75,0,0,1,0-3.74,3.43,3.43,0,0,1,1.37-1.3,4.09,4.09,0,0,1,2-.47,4.45,4.45,0,0,1,1.62.29,3.34,3.34,0,0,1,1.22.86l-.83.81a2.66,2.66,0,0,0-2-.81,2.75,2.75,0,0,0-1.33.32,2.27,2.27,0,0,0-.91.88,2.5,2.5,0,0,0-.33,1.29,2.45,2.45,0,0,0,.33,1.27,2.29,2.29,0,0,0,.91.89,2.64,2.64,0,0,0,1.32.33,2.81,2.81,0,0,0,1.46-.37Z"/><path class="cls-5" d="M84.32,319.27H80.78l-.69,1.64H78.73l3.18-7.08h1.3l3.19,7.08H85Zm-.43-1-1.34-3.09-1.32,3.09Z"/><path class="cls-5" d="M93.59,313.83v7.08H92.51l-3.9-4.79v4.79H87.3v-7.08h1.09l3.9,4.79v-4.79Z"/><path class="cls-5" d="M95.49,313.83h3.1a4.5,4.5,0,0,1,2,.44,3.29,3.29,0,0,1,1.36,1.25,3.43,3.43,0,0,1,.49,1.85,3.49,3.49,0,0,1-.49,1.86,3.27,3.27,0,0,1-1.36,1.24,4.5,4.5,0,0,1-2,.44h-3.1Zm3,6a3,3,0,0,0,1.37-.3,2.2,2.2,0,0,0,.91-.85,2.53,2.53,0,0,0,.31-1.28,2.55,2.55,0,0,0-.31-1.28,2.2,2.2,0,0,0-.91-.85,3,3,0,0,0-1.37-.3H96.81v4.86Z"/><path class="cls-5" d="M15.06,332.67a3.38,3.38,0,0,1-1.35-1.3,3.81,3.81,0,0,1,0-3.74,3.61,3.61,0,0,1,1.36-1.3,4,4,0,0,1,1.94-.47,3.84,3.84,0,0,1,1.58.31,3.16,3.16,0,0,1,1.22.88l-.85.79a2.47,2.47,0,0,0-1.89-.82,2.7,2.7,0,0,0-1.31.31,2.4,2.4,0,0,0-.9.89,2.59,2.59,0,0,0-.32,1.28,2.62,2.62,0,0,0,.32,1.29,2.38,2.38,0,0,0,.9.88,2.7,2.7,0,0,0,1.31.32,2.45,2.45,0,0,0,1.89-.84l.85.81a3.27,3.27,0,0,1-1.22.88,4.09,4.09,0,0,1-1.59.3A3.92,3.92,0,0,1,15.06,332.67Z"/><path class="cls-5" d="M22.28,332.67a3.54,3.54,0,0,1-1.36-1.3,3.79,3.79,0,0,1,0-3.73,3.57,3.57,0,0,1,1.36-1.31,4.3,4.3,0,0,1,3.91,0,3.54,3.54,0,0,1,1.36,1.3,3.75,3.75,0,0,1,0,3.74,3.4,3.4,0,0,1-1.36,1.3,4.3,4.3,0,0,1-3.91,0Zm3.23-1a2.31,2.31,0,0,0,.89-.89,2.72,2.72,0,0,0,0-2.56,2.38,2.38,0,0,0-.89-.89,2.78,2.78,0,0,0-2.55,0,2.38,2.38,0,0,0-.89.89,2.72,2.72,0,0,0,0,2.56,2.31,2.31,0,0,0,.89.89,2.7,2.7,0,0,0,2.55,0Z"/><path class="cls-5" d="M35.94,333v-4.69l-2.32,3.88H33l-2.32-3.82V333H29.44V326h1.08l2.82,4.7,2.75-4.7h1.09V333Z"/><path class="cls-5" d="M45.6,333v-4.69l-2.33,3.88h-.58l-2.33-3.82V333H39.1V326h1.08l2.81,4.7,2.76-4.7h1.08V333Z"/><path class="cls-5" d="M48.75,326h1.32V333H48.75Z"/><path class="cls-5" d="M52.59,332.91a3.35,3.35,0,0,1-1.21-.62l.46-1a3.43,3.43,0,0,0,1.06.56,3.77,3.77,0,0,0,1.27.22,2.18,2.18,0,0,0,1.18-.25.77.77,0,0,0,.39-.67.63.63,0,0,0-.22-.5,1.61,1.61,0,0,0-.55-.31c-.22-.07-.53-.16-.91-.25a10.8,10.8,0,0,1-1.31-.39,2,2,0,0,1-.86-.6,1.6,1.6,0,0,1-.36-1.1,1.92,1.92,0,0,1,.32-1.07,2.13,2.13,0,0,1,1-.76,3.86,3.86,0,0,1,1.57-.29,5.47,5.47,0,0,1,1.28.16,3.56,3.56,0,0,1,1.08.47l-.41,1a4.16,4.16,0,0,0-1-.41,3.36,3.36,0,0,0-1-.14,2,2,0,0,0-1.15.26.79.79,0,0,0-.38.7.64.64,0,0,0,.21.49,1.5,1.5,0,0,0,.56.3c.22.08.52.16.91.26a8.54,8.54,0,0,1,1.29.38,2.16,2.16,0,0,1,.86.6A1.58,1.58,0,0,1,57,331a1.81,1.81,0,0,1-.32,1.06,2.13,2.13,0,0,1-1,.76,3.92,3.92,0,0,1-1.58.28A5.59,5.59,0,0,1,52.59,332.91Z"/><path class="cls-5" d="M59,332.91a3.35,3.35,0,0,1-1.21-.62l.46-1a3.43,3.43,0,0,0,1.06.56,3.77,3.77,0,0,0,1.27.22,2.18,2.18,0,0,0,1.18-.25.77.77,0,0,0,.39-.67.63.63,0,0,0-.22-.5,1.61,1.61,0,0,0-.55-.31c-.22-.07-.53-.16-.91-.25a10.28,10.28,0,0,1-1.31-.39,2,2,0,0,1-.86-.6,1.6,1.6,0,0,1-.36-1.1,1.92,1.92,0,0,1,.32-1.07,2.13,2.13,0,0,1,1-.76,3.86,3.86,0,0,1,1.57-.29A5.47,5.47,0,0,1,62,326a3.68,3.68,0,0,1,1.08.47l-.42,1a3.93,3.93,0,0,0-1-.41,3.36,3.36,0,0,0-1-.14,2,2,0,0,0-1.15.26.79.79,0,0,0-.38.7.64.64,0,0,0,.21.49,1.5,1.5,0,0,0,.56.3c.22.08.52.16.91.26a8.54,8.54,0,0,1,1.29.38,2.16,2.16,0,0,1,.86.6,1.58,1.58,0,0,1,.36,1.09,1.81,1.81,0,0,1-.32,1.06,2.13,2.13,0,0,1-1,.76,3.92,3.92,0,0,1-1.58.28A5.59,5.59,0,0,1,59,332.91Z"/><path class="cls-5" d="M64.7,326H66V333H64.7Z"/><path class="cls-5" d="M69.28,332.67a3.5,3.5,0,0,1-1.37-1.3,3.79,3.79,0,0,1,0-3.73,3.52,3.52,0,0,1,1.37-1.31,4.28,4.28,0,0,1,3.9,0,3.54,3.54,0,0,1,1.36,1.3,3.75,3.75,0,0,1,0,3.74,3.4,3.4,0,0,1-1.36,1.3,4.28,4.28,0,0,1-3.9,0Zm3.22-1a2.24,2.24,0,0,0,.89-.89,2.72,2.72,0,0,0,0-2.56,2.31,2.31,0,0,0-.89-.89,2.57,2.57,0,0,0-1.27-.31,2.61,2.61,0,0,0-1.28.31,2.45,2.45,0,0,0-.89.89,2.72,2.72,0,0,0,0,2.56,2.38,2.38,0,0,0,.89.89,2.61,2.61,0,0,0,1.28.32A2.58,2.58,0,0,0,72.5,331.67Z"/><path class="cls-5" d="M82.72,326V333H81.64l-3.9-4.79V333H76.43V326h1.09l3.9,4.8V326Z"/><path class="cls-5" d="M84.62,326h1.32V333H84.62Z"/><path class="cls-5" d="M94.14,326V333H93.05l-3.9-4.79V333h-1.3V326h1.08l3.9,4.8V326Z"/><path class="cls-5" d="M100.87,329.42h1.24v2.82a3.94,3.94,0,0,1-1.27.67,5.05,5.05,0,0,1-1.5.23,4,4,0,0,1-2-.47,3.4,3.4,0,0,1-1.36-1.3,3.75,3.75,0,0,1,0-3.74,3.5,3.5,0,0,1,1.37-1.3,4.11,4.11,0,0,1,2-.47,4.18,4.18,0,0,1,1.62.3,3,3,0,0,1,1.22.86l-.82.8a2.69,2.69,0,0,0-2-.8,2.78,2.78,0,0,0-1.33.31,2.33,2.33,0,0,0-.91.88,2.74,2.74,0,0,0,0,2.57,2.51,2.51,0,0,0,.91.89,2.74,2.74,0,0,0,1.32.32,2.87,2.87,0,0,0,1.46-.36Z"/><polygon class="cls-12" points="330.9 245.29 330.9 170.29 315.65 178.47 315.65 245.29 315.68 245.29 315.68 195.13 325.36 201.83 325.36 245.29 330.9 245.29"/><polygon class="cls-12" points="359.31 245.24 365.37 245.24 365.37 230.81 359.31 227.33 359.31 245.24"/><path class="cls-12" d="M350,212.48l.09.88L350,214Zm7.24,5.48V202.88l-12.77-8v21.77l-8.12,3.95v24.6H350.1V213Z"/><polygon class="cls-12" points="315.68 245.29 315.68 195.07 299.14 202.84 299.14 245.29 315.68 245.29"/><path class="cls-2" d="M262.75,264.18a2.52,2.52,0,0,1,.49,1.58,2.36,2.36,0,0,1-1,2.05,5.29,5.29,0,0,1-3,.71H254V258.41h4.94a4.83,4.83,0,0,1,2.83.71,2.23,2.23,0,0,1,1,1.92,2.46,2.46,0,0,1-.35,1.32,2.56,2.56,0,0,1-1,.91A2.64,2.64,0,0,1,262.75,264.18Zm-6.46-4v2.38h2.33a2.29,2.29,0,0,0,1.31-.31,1,1,0,0,0,.45-.89,1,1,0,0,0-.45-.89,2.38,2.38,0,0,0-1.31-.29Zm4.13,6.28a1,1,0,0,0,.47-.94c0-.84-.63-1.26-1.87-1.26h-2.73v2.5H259A2.65,2.65,0,0,0,260.42,266.46Z"/><path class="cls-2" d="M274.29,258.41v10.11H272v-4.14h-4.6v4.14H265V258.41h2.33v4H272v-4Z"/><path class="cls-2" d="M283.13,268.52l-1.95-2.81H279v2.81h-2.33V258.41h4.37a5.57,5.57,0,0,1,2.33.45,3.5,3.5,0,0,1,1.53,1.27,3.56,3.56,0,0,1,.53,1.95,3.42,3.42,0,0,1-.54,1.94,3.31,3.31,0,0,1-1.54,1.25l2.27,3.25Zm-.6-7.75a2.46,2.46,0,0,0-1.6-.45H279v3.52h1.91a2.4,2.4,0,0,0,1.6-.46,1.82,1.82,0,0,0,0-2.61Z"/><path class="cls-2" d="M300.17,264.18a2.52,2.52,0,0,1,.49,1.58,2.34,2.34,0,0,1-1,2.05,5.25,5.25,0,0,1-3,.71h-5.23V258.41h4.94a4.86,4.86,0,0,1,2.84.71,2.23,2.23,0,0,1,1,1.92,2.47,2.47,0,0,1-.36,1.32,2.43,2.43,0,0,1-1,.91A2.64,2.64,0,0,1,300.17,264.18Zm-6.46-4v2.38H296a2.26,2.26,0,0,0,1.31-.31,1,1,0,0,0,.45-.89,1,1,0,0,0-.45-.89,2.36,2.36,0,0,0-1.31-.29Zm4.13,6.28a1,1,0,0,0,.47-.94c0-.84-.62-1.26-1.87-1.26h-2.73v2.5h2.73A2.65,2.65,0,0,0,297.84,266.46Z"/><path class="cls-2" d="M310.27,266.65v1.87h-7.83V258.41h7.64v1.88h-5.32v2.2h4.7v1.82h-4.7v2.34Z"/><path class="cls-2" d="M313.13,268.37a5.58,5.58,0,0,1-1.8-.84l.8-1.77a5.29,5.29,0,0,0,1.54.77,5.94,5.94,0,0,0,1.8.29,2.83,2.83,0,0,0,1.47-.3.88.88,0,0,0,.48-.78.76.76,0,0,0-.29-.6,2.14,2.14,0,0,0-.72-.39c-.29-.09-.69-.2-1.19-.31a18.63,18.63,0,0,1-1.89-.55,3.27,3.27,0,0,1-1.27-.88,2.41,2.41,0,0,1-.52-1.62,2.88,2.88,0,0,1,.47-1.6,3.27,3.27,0,0,1,1.44-1.13,5.85,5.85,0,0,1,2.35-.42,8,8,0,0,1,1.89.23,5.93,5.93,0,0,1,1.62.67l-.72,1.77a5.65,5.65,0,0,0-2.81-.79,2.55,2.55,0,0,0-1.45.32,1,1,0,0,0-.47.83.83.83,0,0,0,.54.78,9.07,9.07,0,0,0,1.66.49,18.63,18.63,0,0,1,1.89.55,3.14,3.14,0,0,1,1.26.87,2.32,2.32,0,0,1,.53,1.6,2.75,2.75,0,0,1-.48,1.58,3.28,3.28,0,0,1-1.46,1.14,5.85,5.85,0,0,1-2.35.42A8.18,8.18,0,0,1,313.13,268.37Z"/><path class="cls-2" d="M323.31,260.32h-3.24v-1.91h8.81v1.91h-3.23v8.2h-2.34Z"/><path class="cls-2" d="M335.23,268.37a5.39,5.39,0,0,1-1.8-.84l.8-1.77a5.29,5.29,0,0,0,1.54.77,5.93,5.93,0,0,0,1.79.29,2.85,2.85,0,0,0,1.48-.3.89.89,0,0,0,.47-.78.75.75,0,0,0-.28-.6,2.24,2.24,0,0,0-.72-.39c-.29-.09-.69-.2-1.19-.31a18.63,18.63,0,0,1-1.89-.55,3.13,3.13,0,0,1-1.27-.88,2.41,2.41,0,0,1-.53-1.62,2.81,2.81,0,0,1,.48-1.6,3.27,3.27,0,0,1,1.44-1.13,5.83,5.83,0,0,1,2.34-.42,8,8,0,0,1,1.9.23,5.73,5.73,0,0,1,1.61.67l-.72,1.77a5.62,5.62,0,0,0-2.8-.79,2.55,2.55,0,0,0-1.45.32,1,1,0,0,0-.47.83.83.83,0,0,0,.54.78,8.92,8.92,0,0,0,1.65.49,18.17,18.17,0,0,1,1.9.55,3.14,3.14,0,0,1,1.26.87,2.32,2.32,0,0,1,.53,1.6,2.69,2.69,0,0,1-.49,1.58,3.2,3.2,0,0,1-1.45,1.14,5.88,5.88,0,0,1-2.35.42A8.18,8.18,0,0,1,335.23,268.37Z"/><path class="cls-2" d="M345.5,268a5.16,5.16,0,0,1,0-9.1,6.25,6.25,0,0,1,5.67,0,5.16,5.16,0,0,1,0,9.1,6.25,6.25,0,0,1-5.67,0Zm4.46-1.73a3,3,0,0,0,1.13-1.15,3.63,3.63,0,0,0,0-3.35,3,3,0,0,0-1.13-1.15,3.3,3.3,0,0,0-1.62-.41,3.25,3.25,0,0,0-1.62.41,3,3,0,0,0-1.13,1.15,3.55,3.55,0,0,0,0,3.35,2.91,2.91,0,0,0,1.13,1.15,3.15,3.15,0,0,0,1.62.41A3.2,3.2,0,0,0,350,266.29Z"/><path class="cls-2" d="M355.63,258.41H358v8.21H363v1.9h-7.41Z"/><path class="cls-2" d="M365.36,267.5a4.59,4.59,0,0,1-1.21-3.42v-5.67h2.34V264c0,1.81.75,2.71,2.26,2.71a2.12,2.12,0,0,0,1.67-.65A3.05,3.05,0,0,0,371,264v-5.58h2.31v5.67a4.78,4.78,0,0,1-7.95,3.42Z"/><path class="cls-2" d="M377.54,260.32h-3.23v-1.91h8.81v1.91h-3.24v8.2h-2.34Z"/><path class="cls-2" d="M384.37,258.41h2.34v10.11h-2.34Z"/><path class="cls-2" d="M391.17,268a5.16,5.16,0,0,1,0-9.1,6.25,6.25,0,0,1,5.67,0,5.16,5.16,0,0,1,2,1.87,5.35,5.35,0,0,1,0,5.36,5.16,5.16,0,0,1-2,1.87,6.25,6.25,0,0,1-5.67,0Zm4.45-1.73a2.93,2.93,0,0,0,1.14-1.15,3.63,3.63,0,0,0,0-3.35,3,3,0,0,0-1.14-1.15,3.39,3.39,0,0,0-3.23,0,3,3,0,0,0-1.13,1.15,3.55,3.55,0,0,0,0,3.35,2.91,2.91,0,0,0,1.13,1.15,3.39,3.39,0,0,0,3.23,0Z"/><path class="cls-2" d="M410.57,258.41v10.11h-1.92l-5-6.14v6.14H401.3V258.41h1.93l5,6.14v-6.14Z"/><path class="cls-5" d="M302,276.19a3.62,3.62,0,0,1,1.52,5.17,3.42,3.42,0,0,1-1.52,1.27,5.76,5.76,0,0,1-2.33.44h-2v2.79h-2.34V275.75h4.38A5.6,5.6,0,0,1,302,276.19Zm-.86,4.52a1.81,1.81,0,0,0,0-2.6,2.42,2.42,0,0,0-1.6-.46H297.6v3.51h1.91A2.48,2.48,0,0,0,301.11,280.71Z"/><path class="cls-5" d="M312.14,285.86,310.19,283H308v2.82H305.7V275.75h4.38a5.6,5.6,0,0,1,2.33.44,3.48,3.48,0,0,1,0,6.42l2.27,3.25Zm-.59-7.75a2.4,2.4,0,0,0-1.6-.46H308v3.53H310a2.41,2.41,0,0,0,1.6-.47,1.81,1.81,0,0,0,0-2.6Z"/><path class="cls-5" d="M323,283.69h-4.7l-.89,2.17H315l4.5-10.11h2.32l4.52,10.11h-2.46Zm-.74-1.78-1.6-3.87L319,281.91Z"/><path class="cls-5" d="M329.29,285.36a5.19,5.19,0,0,1,0-9.12,6,6,0,0,1,2.81-.67,6,6,0,0,1,2.38.46,4.82,4.82,0,0,1,1.78,1.33l-1.5,1.39a3.22,3.22,0,0,0-2.54-1.18,3.32,3.32,0,0,0-1.68.41,2.81,2.81,0,0,0-1.14,1.15,3.29,3.29,0,0,0-.42,1.67,3.35,3.35,0,0,0,.42,1.68,2.84,2.84,0,0,0,1.14,1.14,3.33,3.33,0,0,0,1.68.42,3.21,3.21,0,0,0,2.54-1.2l1.5,1.38a4.7,4.7,0,0,1-1.79,1.35,5.88,5.88,0,0,1-2.38.46A5.94,5.94,0,0,1,329.29,285.36Z"/><path class="cls-5" d="M339.84,277.65h-3.23v-1.9h8.81v1.9h-3.24v8.21h-2.34Z"/><path class="cls-5" d="M346.68,275.75H349v10.11h-2.34Z"/><path class="cls-5" d="M353.46,285.36a5,5,0,0,1-2-1.87,5.45,5.45,0,0,1,0-5.38,5,5,0,0,1,2-1.87,5.92,5.92,0,0,1,2.81-.67,6,6,0,0,1,2.37.46,4.94,4.94,0,0,1,1.79,1.33l-1.51,1.39a3.22,3.22,0,0,0-2.54-1.18,3.31,3.31,0,0,0-1.67.41,2.83,2.83,0,0,0-1.15,1.15,3.28,3.28,0,0,0-.41,1.67,3.35,3.35,0,0,0,.41,1.68,2.87,2.87,0,0,0,1.15,1.14,3.31,3.31,0,0,0,1.67.42,3.21,3.21,0,0,0,2.54-1.2l1.51,1.38a4.77,4.77,0,0,1-1.79,1.35,6,6,0,0,1-2.39.46A5.87,5.87,0,0,1,353.46,285.36Z"/><path class="cls-5" d="M369.83,284v1.88H362V275.75h7.64v1.87h-5.31v2.2H369v1.82h-4.69V284Z"/><path class="cls-5" d="M220.42,472.39h3.09a4.51,4.51,0,0,1,2,.44,3.29,3.29,0,0,1,1.36,1.25,3.43,3.43,0,0,1,.49,1.85,3.49,3.49,0,0,1-.49,1.86,3.27,3.27,0,0,1-1.36,1.24,4.51,4.51,0,0,1-2,.44h-3.09Zm3,6a3,3,0,0,0,1.37-.3,2.08,2.08,0,0,0,.91-.85,2.44,2.44,0,0,0,.32-1.28,2.46,2.46,0,0,0-.32-1.28,2.14,2.14,0,0,0-.91-.85,3,3,0,0,0-1.37-.3h-1.71v4.86Z"/><path class="cls-5" d="M234.08,478.37v1.1h-5.31v-7.08h5.17v1.1h-3.85v1.85h3.41v1.08h-3.41v1.95Z"/><path class="cls-5" d="M240.06,472.7a2.32,2.32,0,0,1,1.05.87,2.42,2.42,0,0,1,.36,1.34,2.46,2.46,0,0,1-.36,1.34,2.32,2.32,0,0,1-1.05.87,3.78,3.78,0,0,1-1.6.31h-1.6v2h-1.31v-7.08h2.91A3.78,3.78,0,0,1,240.06,472.7ZM239.7,476a1.43,1.43,0,0,0,0-2.08,2,2,0,0,0-1.3-.37h-1.54v2.82h1.54A2,2,0,0,0,239.7,476Z"/><path class="cls-5" d="M242.8,472.39h1.31v6h3.7v1.11h-5Z"/><path class="cls-5" d="M250.07,479.1a3.47,3.47,0,0,1-1.36-1.3,3.61,3.61,0,0,1-.5-1.87,3.55,3.55,0,0,1,.5-1.86,3.5,3.5,0,0,1,1.36-1.31,4.3,4.3,0,0,1,3.91,0,3.54,3.54,0,0,1,1.36,1.3,3.75,3.75,0,0,1,0,3.74,3.47,3.47,0,0,1-1.36,1.3,4.3,4.3,0,0,1-3.91,0Zm3.23-1a2.31,2.31,0,0,0,.89-.89,2.72,2.72,0,0,0,0-2.56,2.31,2.31,0,0,0-.89-.89,2.7,2.7,0,0,0-2.55,0,2.31,2.31,0,0,0-.89.89,2.72,2.72,0,0,0,0,2.56,2.31,2.31,0,0,0,.89.89,2.7,2.7,0,0,0,2.55,0Z"/><path class="cls-5" d="M260,477v2.5h-1.31V477l-2.78-4.6h1.4l2.08,3.45,2.09-3.45h1.29Z"/><path class="cls-5" d="M211.6,490h-3.53l-.7,1.64H206l3.19-7.08h1.29l3.2,7.08h-1.38Zm-.43-1-1.33-3.09-1.33,3.09Z"/><path class="cls-5" d="M220.88,484.52v7.08h-1.09l-3.9-4.79v4.79h-1.3v-7.08h1.08l3.9,4.8v-4.8Z"/><path class="cls-5" d="M222.78,484.52h3.09a4.44,4.44,0,0,1,2,.44,3.32,3.32,0,0,1,1.37,1.25,3.52,3.52,0,0,1,.48,1.85,3.58,3.58,0,0,1-.48,1.86,3.3,3.3,0,0,1-1.37,1.24,4.31,4.31,0,0,1-2,.44h-3.09Zm3,6a3,3,0,0,0,1.37-.3,2.14,2.14,0,0,0,.91-.85,2.53,2.53,0,0,0,.32-1.28,2.56,2.56,0,0,0-.32-1.28,2.2,2.2,0,0,0-.91-.85,3.1,3.1,0,0,0-1.37-.29h-1.72v4.85Z"/><path class="cls-5" d="M233.92,484.52h1.31v7.08h-1.31Z"/><path class="cls-5" d="M243.43,484.52v7.08h-1.08l-3.9-4.79v4.79h-1.31v-7.08h1.08l3.91,4.8v-4.8Z"/><path class="cls-5" d="M245.94,491.47a3.08,3.08,0,0,1-1.2-.62l.45-1a3.49,3.49,0,0,0,1.07.56,3.73,3.73,0,0,0,1.27.22,2.17,2.17,0,0,0,1.17-.25.77.77,0,0,0,.39-.67.66.66,0,0,0-.21-.5,1.72,1.72,0,0,0-.55-.31c-.23-.07-.53-.16-.91-.25a12.53,12.53,0,0,1-1.31-.38,2.09,2.09,0,0,1-.86-.61,1.6,1.6,0,0,1-.36-1.1,1.84,1.84,0,0,1,.32-1.07,2.13,2.13,0,0,1,1-.76,3.83,3.83,0,0,1,1.57-.29,5,5,0,0,1,1.27.17,3.32,3.32,0,0,1,1.08.46l-.41,1a3.93,3.93,0,0,0-1-.41,3.41,3.41,0,0,0-1-.14,2,2,0,0,0-1.16.26.82.82,0,0,0-.38.7.61.61,0,0,0,.22.49,1.45,1.45,0,0,0,.55.3c.22.08.53.16.91.26a7.89,7.89,0,0,1,1.29.38,2.2,2.2,0,0,1,.87.6,1.58,1.58,0,0,1,.36,1.09,1.89,1.89,0,0,1-.32,1.06,2.16,2.16,0,0,1-1,.76,3.87,3.87,0,0,1-1.57.28A5.27,5.27,0,0,1,245.94,491.47Z"/><path class="cls-5" d="M253,485.64h-2.35v-1.12h6v1.12h-2.35v6H253Z"/><path class="cls-5" d="M261.92,490h-3.53l-.7,1.64h-1.36l3.19-7.08h1.29l3.2,7.08h-1.38Zm-.43-1-1.34-3.09-1.32,3.09Z"/><path class="cls-5" d="M264.91,484.52h1.31v6h3.7v1.11h-5Z"/><path class="cls-5" d="M271,484.52h1.32v6H276v1.11h-5Z"/><rect class="cls-13" x="235.17" y="411.89" width="11.78" height="13.17"/><g class="cls-14"><path class="cls-13" d="M241.06,410a3.64,3.64,0,1,0-3.64-3.64A3.64,3.64,0,0,0,241.06,410Z"/><line class="cls-13" x1="238.41" y1="425.34" x2="238.41" y2="415.62"/><line class="cls-13" x1="244.02" y1="424.96" x2="244.02" y2="415.62"/><rect class="cls-13" x="209.96" y="438.74" width="11.78" height="13.17"/><path class="cls-13" d="M215.85,436.88a3.64,3.64,0,1,0-3.64-3.64A3.64,3.64,0,0,0,215.85,436.88Z"/><line class="cls-13" x1="213.2" y1="452.19" x2="213.2" y2="442.47"/><line class="cls-13" x1="218.81" y1="451.81" x2="218.81" y2="442.47"/><rect class="cls-13" x="260.38" y="438.74" width="11.78" height="13.17"/><path class="cls-13" d="M266.27,436.88a3.64,3.64,0,1,0-3.64-3.64A3.64,3.64,0,0,0,266.27,436.88Z"/><line class="cls-13" x1="263.62" y1="452.19" x2="263.62" y2="442.47"/><line class="cls-13" x1="269.23" y1="451.81" x2="269.23" y2="442.47"/><path class="cls-2" d="M244.67,443.4a3.61,3.61,0,1,1-3.61-3.62,3.61,3.61,0,0,1,3.61,3.62m4.92-2.59-.67-1.61,1.13-2.72L248,434.41l-2.71,1.13-1.61-.67-1.12-2.72h-2.94l-1.12,2.72-1.61.67-2.71-1.13-2.08,2.07,1.13,2.72-.67,1.61-2.72,1.12v2.93l2.72,1.12.67,1.62-1.13,2.71,2.08,2.08,2.71-1.13,1.61.66,1.12,2.72h2.94l1.12-2.72,1.61-.66,2.71,1.13,2.08-2.08-1.13-2.71.67-1.62,2.72-1.12v-2.93Z"/><path class="cls-15" d="M244.67,443.4a3.61,3.61,0,1,1-3.61-3.62A3.61,3.61,0,0,1,244.67,443.4Zm4.92-2.59-.67-1.61,1.13-2.72L248,434.41l-2.71,1.13-1.61-.67-1.12-2.72h-2.94l-1.12,2.72-1.61.67-2.71-1.13-2.08,2.07,1.13,2.72-.67,1.61-2.72,1.12v2.93l2.72,1.12.67,1.62-1.13,2.71,2.08,2.08,2.71-1.13,1.61.66,1.12,2.72h2.94l1.12-2.72,1.61-.66,2.71,1.13,2.08-2.08-1.13-2.71.67-1.62,2.72-1.12v-2.93Z"/><polyline class="cls-16" points="215.81 425.53 215.81 406.2 231.45 406.2"/><polyline class="cls-16" points="265.81 425.53 265.81 406.2 250.16 406.2"/><polyline class="cls-16" points="266.32 455.98 266.32 462.21 215.8 462.21 215.8 455.98"/><polyline class="cls-8" points="147.77 145.09 147.77 147.86 155.33 142.63 147.77 137.98 147.77 142.05 131.62 142.05 116.64 167.95 131.62 193.85"/><polyline class="cls-8" points="144.65 190.88 144.65 188.12 137.08 193.35 144.65 198 144.65 193.93 160.8 193.93 175.77 168.03 160.8 142.13"/><path class="cls-2" d="M150.94,167.78a4.74,4.74,0,1,1-4.73-4.73,4.74,4.74,0,0,1,4.73,4.73m6.45-3.39-.88-2.11,1.48-3.56L155.27,156l-3.56,1.48-2.11-.88L148.13,153h-3.85l-1.46,3.56-2.12.88L137.14,156l-2.72,2.72,1.48,3.56-.87,2.11-3.57,1.47v3.85l3.57,1.47.87,2.11-1.48,3.56,2.72,2.72,3.56-1.48,2.12.87,1.46,3.57h3.85L149.6,179l2.11-.87,3.56,1.48,2.72-2.72-1.48-3.56.88-2.11,3.56-1.47v-3.85Z"/><path class="cls-17" d="M150.94,167.78a4.74,4.74,0,1,1-4.73-4.73A4.74,4.74,0,0,1,150.94,167.78Zm6.45-3.39-.88-2.11,1.48-3.56L155.27,156l-3.56,1.48-2.11-.88L148.13,153h-3.85l-1.46,3.56-2.12.88L137.14,156l-2.72,2.72,1.48,3.56-.87,2.11-3.57,1.47v3.85l3.57,1.47.87,2.11-1.48,3.56,2.72,2.72,3.56-1.48,2.12.87,1.46,3.57h3.85L149.6,179l2.11-.87,3.56,1.48,2.72-2.72-1.48-3.56.88-2.11,3.56-1.47v-3.85Z"/></g><path class="cls-5" d="M45.36,158.8v7.08H44v-3H40.38v3H39.07V158.8h1.31v2.92H44V158.8Z"/><path class="cls-5" d="M51.85,164.24H48.31l-.7,1.64H46.26l3.18-7.08h1.3l3.19,7.08H52.55Zm-.44-1-1.33-3.09-1.33,3.09Z"/><path class="cls-5" d="M61.12,158.8v7.08H60l-3.91-4.79v4.79h-1.3V158.8h1.08l3.9,4.79V158.8Z"/><path class="cls-5" d="M63,158.8h3.09a4.44,4.44,0,0,1,2,.44,3.26,3.26,0,0,1,1.37,1.25,3.52,3.52,0,0,1,.48,1.85,3.58,3.58,0,0,1-.48,1.86,3.24,3.24,0,0,1-1.37,1.24,4.44,4.44,0,0,1-2,.44H63Zm3,6a3,3,0,0,0,1.37-.3,2.08,2.08,0,0,0,.91-.85,2.53,2.53,0,0,0,.32-1.28,2.56,2.56,0,0,0-.32-1.28,2.08,2.08,0,0,0-.91-.85,3,3,0,0,0-1.37-.3H64.33v4.86Z"/><path class="cls-5" d="M75.51,165.51a3.54,3.54,0,0,1-1.36-1.3,3.81,3.81,0,0,1,0-3.74,3.54,3.54,0,0,1,1.36-1.3,4.3,4.3,0,0,1,3.91,0,3.47,3.47,0,0,1,1.36,1.3,3.75,3.75,0,0,1,0,3.74,3.47,3.47,0,0,1-1.36,1.3,4.3,4.3,0,0,1-3.91,0Zm3.23-1a2.31,2.31,0,0,0,.89-.89,2.72,2.72,0,0,0,0-2.56,2.31,2.31,0,0,0-.89-.89,2.7,2.7,0,0,0-2.55,0,2.31,2.31,0,0,0-.89.89,2.72,2.72,0,0,0,0,2.56,2.31,2.31,0,0,0,.89.89,2.7,2.7,0,0,0,2.55,0Z"/><path class="cls-5" d="M88.93,158.8l-3.08,7.08h-1.3l-3.09-7.08h1.43l2.35,5.46,2.38-5.46Z"/><path class="cls-5" d="M95,164.78v1.1H89.69V158.8h5.17v1.1H91v1.84h3.42v1.09H91v1.95Z"/><path class="cls-5" d="M101.09,165.88l-1.44-2.07H97.78v2.06H96.46V158.8h2.92a3.81,3.81,0,0,1,1.6.31,2.34,2.34,0,0,1,1,.86,2.62,2.62,0,0,1,0,2.72,2.22,2.22,0,0,1-1.12.86l1.63,2.33Zm-.47-5.6a2,2,0,0,0-1.31-.37H97.78v2.82h1.53a2,2,0,0,0,1.31-.36,1.28,1.28,0,0,0,.44-1.05A1.25,1.25,0,0,0,100.62,160.28Z"/><path class="cls-5" d="M31.53,176.37H28l-.7,1.64H25.93l3.19-7.08h1.29l3.2,7.08H32.23Zm-.44-1-1.33-3.09-1.33,3.09Z"/><path class="cls-5" d="M40.8,170.93V178H39.72l-3.91-4.79V178h-1.3v-7.08h1.08l3.9,4.8v-4.8Z"/><path class="cls-5" d="M42.7,170.93h3.09a4.44,4.44,0,0,1,2,.44,3.32,3.32,0,0,1,1.37,1.25,3.52,3.52,0,0,1,.48,1.85,3.58,3.58,0,0,1-.48,1.86,3.3,3.3,0,0,1-1.37,1.24,4.44,4.44,0,0,1-2,.44H42.7Zm3,6a3,3,0,0,0,1.37-.3,2.08,2.08,0,0,0,.91-.85,2.53,2.53,0,0,0,.32-1.28,2.56,2.56,0,0,0-.32-1.28,2.14,2.14,0,0,0-.91-.85,3.1,3.1,0,0,0-1.37-.29H44v4.85Z"/><path class="cls-5" d="M55.19,177.64a3.47,3.47,0,0,1-1.36-1.3,3.73,3.73,0,0,1,0-3.73,3.5,3.5,0,0,1,1.36-1.31,4.3,4.3,0,0,1,3.91,0,3.54,3.54,0,0,1,1.36,1.3,3.75,3.75,0,0,1,0,3.74,3.4,3.4,0,0,1-1.36,1.3,4.3,4.3,0,0,1-3.91,0Zm3.23-1a2.31,2.31,0,0,0,.89-.89,2.72,2.72,0,0,0,0-2.56,2.38,2.38,0,0,0-.89-.89,2.78,2.78,0,0,0-2.55,0,2.38,2.38,0,0,0-.89.89,2.72,2.72,0,0,0,0,2.56,2.31,2.31,0,0,0,.89.89,2.7,2.7,0,0,0,2.55,0Z"/><path class="cls-5" d="M66.87,171.24a2.3,2.3,0,0,1,1,.87,2.34,2.34,0,0,1,.37,1.34,2.33,2.33,0,0,1-1.41,2.22,4,4,0,0,1-1.61.3H63.67v2H62.35v-7.08h2.91A4,4,0,0,1,66.87,171.24Zm-.36,3.25a1.45,1.45,0,0,0,0-2.08,2,2,0,0,0-1.31-.36H63.67v2.81H65.2A2,2,0,0,0,66.51,174.49Z"/><path class="cls-5" d="M74.91,176.91V178H69.6v-7.08h5.17V172H70.92v1.84h3.41V175H70.92v1.95Z"/><path class="cls-5" d="M81,178l-1.45-2.07H77.69V178H76.37v-7.08h2.92a4,4,0,0,1,1.6.31,2.3,2.3,0,0,1,1,.87,2.34,2.34,0,0,1,.37,1.34,2.43,2.43,0,0,1-.39,1.38,2.34,2.34,0,0,1-1.12.86L82.42,178Zm-.48-5.6a2,2,0,0,0-1.3-.36H77.69v2.82h1.54a2,2,0,0,0,1.3-.37,1.28,1.28,0,0,0,.44-1.05A1.25,1.25,0,0,0,80.53,172.41Z"/><path class="cls-5" d="M88.35,176.37H84.82l-.7,1.64H82.76L86,170.93h1.29l3.2,7.08H89.06Zm-.43-1-1.33-3.09-1.33,3.09Z"/><path class="cls-5" d="M92.43,172.05H90.08v-1.12h6v1.12H93.74v6H92.43Z"/><path class="cls-5" d="M102.39,176.91V178H97.08v-7.08h5.17V172H98.39v1.84h3.42V175H98.39v1.95Z"/><path class="cls-5" d="M233.73,23.24V18.55l-2.33,3.89h-.58l-2.33-3.83v4.63h-1.25V16.17h1.08l2.81,4.69,2.76-4.69H235v7.07Z"/><path class="cls-5" d="M241.47,21.61h-3.53l-.7,1.63h-1.36l3.19-7.07h1.29l3.2,7.07h-1.38Zm-.43-1-1.33-3.09-1.33,3.09Z"/><path class="cls-5" d="M244.46,16.17h1.31v7.07h-1.31Z"/><path class="cls-5" d="M254,16.17v7.07h-1.08L249,18.45v4.79h-1.31V16.17h1.08L252.67,21V16.17Z"/><path class="cls-5" d="M257.31,17.28H255V16.17h6v1.11h-2.35v6h-1.31Z"/><path class="cls-5" d="M266.2,21.61h-3.53l-.7,1.63h-1.36l3.19-7.07h1.29l3.2,7.07h-1.38Zm-.43-1-1.34-3.09-1.32,3.09Z"/><path class="cls-5" d="M269.19,16.17h1.31v7.07h-1.31Z"/><path class="cls-5" d="M278.7,16.17v7.07h-1.08l-3.9-4.79v4.79h-1.31V16.17h1.08L277.4,21V16.17Z"/><path class="cls-5" d="M386.48,22.14v1.1h-5.3V16.17h5.16v1.1h-3.85v1.84h3.42v1.08h-3.42v1.95Z"/><path class="cls-5" d="M394.24,16.17v7.07h-1.08l-3.9-4.79v4.79H388V16.17H389l3.9,4.79V16.17Z"/><path class="cls-5" d="M403.61,24a2.26,2.26,0,0,1-.82.63,2.53,2.53,0,0,1-1,.21,2.73,2.73,0,0,1-1.33-.33A6,6,0,0,1,399,23.32a3.78,3.78,0,0,1-1.76-.57,3.38,3.38,0,0,1-1.21-1.28,3.82,3.82,0,0,1,.06-3.63,3.47,3.47,0,0,1,1.36-1.3,4.3,4.3,0,0,1,3.91,0,3.45,3.45,0,0,1,1.36,1.29,3.62,3.62,0,0,1,.5,1.88,3.55,3.55,0,0,1-.34,1.55,3.45,3.45,0,0,1-.93,1.21,3.58,3.58,0,0,1-1.38.72,2.26,2.26,0,0,0,.57.46,1.43,1.43,0,0,0,.61.14,1.6,1.6,0,0,0,1.22-.57Zm-6.33-3a2.31,2.31,0,0,0,.89.89,2.7,2.7,0,0,0,2.55,0,2.31,2.31,0,0,0,.89-.89,2.7,2.7,0,0,0,0-2.55,2.31,2.31,0,0,0-.89-.89,2.7,2.7,0,0,0-2.55,0,2.31,2.31,0,0,0-.89.89,2.7,2.7,0,0,0,0,2.55Z"/><path class="cls-5" d="M405.41,22.52a3.24,3.24,0,0,1-.82-2.36v-4h1.32v3.94c0,1.39.6,2.08,1.8,2.08s1.79-.69,1.79-2.08V16.17h1.29v4a3.23,3.23,0,0,1-.81,2.36,3.59,3.59,0,0,1-4.57,0Z"/><path class="cls-5" d="M412.63,16.17h1.31v7.07h-1.31Z"/><path class="cls-5" d="M420.49,23.24,419,21.17h-1.87v2.06h-1.32V16.17h2.92a4,4,0,0,1,1.6.3,2.38,2.38,0,0,1,1.05.87,2.46,2.46,0,0,1,.36,1.34,2.41,2.41,0,0,1-.39,1.38,2.34,2.34,0,0,1-1.12.86l1.63,2.32Zm-.48-5.6a2,2,0,0,0-1.3-.36h-1.54V20.1h1.54a2,2,0,0,0,1.3-.37,1.44,1.44,0,0,0,0-2.09Z"/><path class="cls-5" d="M426.21,20.75v2.49h-1.32V20.77l-2.78-4.6h1.41l2.07,3.44,2.09-3.44H429Z"/><g class="cls-14"><polyline class="cls-18" points="430.27 55.66 430.27 35.08 378.64 35.08 378.64 96.82 389.93 88.35 430.27 88.35 430.27 80.54"/><rect class="cls-2" x="391.19" y="55.8" width="9.63" height="24.35"/><rect class="cls-19" x="391.19" y="55.8" width="9.63" height="24.35"/><rect class="cls-2" x="391.19" y="42.4" width="9.63" height="8.82"/><rect class="cls-19" x="391.19" y="42.4" width="9.63" height="8.82"/><line class="cls-18" x1="405.87" y1="59.12" x2="424.79" y2="59.12"/><line class="cls-18" x1="405.87" y1="63.55" x2="424.79" y2="63.55"/><line class="cls-18" x1="405.87" y1="67.98" x2="424.79" y2="67.98"/><line class="cls-18" x1="405.87" y1="72.4" x2="424.79" y2="72.4"/><line class="cls-18" x1="405.87" y1="76.83" x2="424.79" y2="76.83"/></g><path class="cls-5" d="M553.56,169.45l-1.44-2.07h-1.87v2.06h-1.32v-7.08h2.91a3.82,3.82,0,0,1,1.61.31,2.3,2.3,0,0,1,1,.87,2.34,2.34,0,0,1,.37,1.34,2.43,2.43,0,0,1-.39,1.38,2.34,2.34,0,0,1-1.12.86l1.63,2.32Zm-.47-5.6a2,2,0,0,0-1.31-.36h-1.53v2.82h1.53a2,2,0,0,0,1.31-.37,1.28,1.28,0,0,0,.44-1.05A1.25,1.25,0,0,0,553.09,163.85Z"/><path class="cls-5" d="M561.63,168.35v1.1h-5.31v-7.08h5.17v1.1h-3.85v1.85h3.41v1.08h-3.41v1.95Z"/><path class="cls-5" d="M567.61,162.68a2.27,2.27,0,0,1,1,.87,2.42,2.42,0,0,1,.36,1.34,2.46,2.46,0,0,1-.36,1.34,2.27,2.27,0,0,1-1,.87,3.78,3.78,0,0,1-1.6.31h-1.6v2H563.1v-7.08H566A3.78,3.78,0,0,1,567.61,162.68Zm-.36,3.25a1.43,1.43,0,0,0,0-2.08,2,2,0,0,0-1.3-.36h-1.54v2.81H566A2,2,0,0,0,567.25,165.93Z"/><path class="cls-5" d="M571.79,169.08a3.47,3.47,0,0,1-1.36-1.3,3.61,3.61,0,0,1-.5-1.87,3.55,3.55,0,0,1,.5-1.86,3.5,3.5,0,0,1,1.36-1.31,4.28,4.28,0,0,1,3.9,0,3.69,3.69,0,0,1,1.37,5,3.43,3.43,0,0,1-1.37,1.3,4.28,4.28,0,0,1-3.9,0Zm3.23-1a2.38,2.38,0,0,0,.89-.89,2.72,2.72,0,0,0,0-2.56,2.45,2.45,0,0,0-.89-.89,2.7,2.7,0,0,0-2.55,0,2.38,2.38,0,0,0-.89.89,2.72,2.72,0,0,0,0,2.56,2.31,2.31,0,0,0,.89.89,2.7,2.7,0,0,0,2.55,0Z"/><path class="cls-5" d="M583.58,169.45l-1.44-2.07h-1.88v2.06H579v-7.08h2.91a3.82,3.82,0,0,1,1.61.31,2.3,2.3,0,0,1,1,.87,2.62,2.62,0,0,1,0,2.72,2.39,2.39,0,0,1-1.12.86l1.63,2.32Zm-.47-5.6a2.06,2.06,0,0,0-1.31-.36h-1.54v2.82h1.54a2.06,2.06,0,0,0,1.31-.37,1.32,1.32,0,0,0,.44-1.05A1.28,1.28,0,0,0,583.11,163.85Z"/><path class="cls-5" d="M587.69,163.49h-2.35v-1.12h6v1.12H589v6h-1.31Z"/><polyline class="cls-8" points="525.4 137.4 482.43 137.4 482.43 203.18 533.45 203.18 533.45 137.4"/><line class="cls-8" x1="503.04" y1="150.98" x2="526.28" y2="150.98"/><line class="cls-8" x1="503.04" y1="186.98" x2="526.28" y2="186.98"/><line class="cls-8" x1="503.04" y1="147.85" x2="526.28" y2="147.85"/><line class="cls-8" x1="503.04" y1="164.03" x2="526.28" y2="164.03"/><line class="cls-8" x1="503.04" y1="177.07" x2="526.28" y2="177.07"/><line class="cls-8" x1="503.04" y1="190.12" x2="526.28" y2="190.12"/><rect class="cls-2" x="489.92" y="145.41" width="6.79" height="6.24"/><rect class="cls-20" x="489.92" y="145.41" width="6.79" height="6.24"/><rect class="cls-2" x="489.92" y="158.44" width="6.79" height="6.24"/><rect class="cls-20" x="489.92" y="158.44" width="6.79" height="6.24"/><rect class="cls-2" x="489.92" y="171.47" width="6.79" height="6.24"/><rect class="cls-20" x="489.92" y="171.47" width="6.79" height="6.24"/><rect class="cls-2" x="489.92" y="184.49" width="6.79" height="6.24"/><rect class="cls-20" x="489.92" y="184.49" width="6.79" height="6.24"/><polyline class="cls-8" points="254.52 42.67 254.52 45.43 262.08 40.2 254.52 35.56 254.52 39.62 238.37 39.62 223.39 65.53 238.37 91.43"/><polyline class="cls-8" points="251.4 88.46 251.4 85.7 243.83 90.93 251.4 95.57 251.4 91.51 267.55 91.51 282.53 65.61 267.55 39.71"/><path class="cls-2" d="M245.48,52.84,238,65.57l7.48,12.73h3.74V72.55a7.68,7.68,0,0,1-1.81-1.25A7.52,7.52,0,0,1,246,69.65a8.06,8.06,0,0,1-.87-1.94,7.68,7.68,0,0,1-.3-2.14,7.58,7.58,0,0,1,.3-2.14,8,8,0,0,1,.87-2,7.76,7.76,0,0,1,1.38-1.65,8,8,0,0,1,1.81-1.25v7.59L253,68l3.74-1.82V58.58a8,8,0,0,1,1.81,1.25,7.66,7.66,0,0,1,1.37,1.65,7.78,7.78,0,0,1,.88,2,7.58,7.58,0,0,1,.3,2.14,7.51,7.51,0,0,1-1.18,4.08,7.43,7.43,0,0,1-1.37,1.65,8,8,0,0,1-1.81,1.25V78.3h3.74l7.48-12.73-7.48-12.73Z"/><path class="cls-21" d="M245.48,52.84,238,65.57l7.48,12.73h3.74V72.55a7.68,7.68,0,0,1-1.81-1.25A7.52,7.52,0,0,1,246,69.65a8.06,8.06,0,0,1-.87-1.94,7.68,7.68,0,0,1-.3-2.14,7.58,7.58,0,0,1,.3-2.14,8,8,0,0,1,.87-2,7.76,7.76,0,0,1,1.38-1.65,8,8,0,0,1,1.81-1.25v7.59L253,68l3.74-1.82V58.58a8,8,0,0,1,1.81,1.25,7.66,7.66,0,0,1,1.37,1.65,7.78,7.78,0,0,1,.88,2,7.58,7.58,0,0,1,.3,2.14,7.51,7.51,0,0,1-1.18,4.08,7.43,7.43,0,0,1-1.37,1.65,8,8,0,0,1-1.81,1.25V78.3h3.74l7.48-12.73-7.48-12.73Z"/><line class="cls-9" x1="227.28" y1="92.48" x2="175.19" y2="144.57"/><line class="cls-9" x1="146.96" y1="205.09" x2="146.96" y2="286.35"/><line class="cls-9" x1="184.16" y1="359.56" x2="218.54" y2="393.93"/><line class="cls-9" x1="279.52" y1="428.22" x2="365.37" y2="428.22"/><line class="cls-9" x1="436.57" y1="394.01" x2="478.85" y2="351.72"/><line class="cls-9" x1="508.23" y1="282.26" x2="508.23" y2="211.77"/><line class="cls-9" x1="474.63" y1="139.22" x2="432.52" y2="97.1"/><line class="cls-9" x1="371.6" y1="66.93" x2="292.91" y2="66.93"/></svg>