<svg id="Layer_1" data-name="Layer 1" xmlns="http://www.w3.org/2000/svg" viewBox="0 0 248.6 246.32"><defs><style>.cls-1{fill:#00b4ed;}.cls-2{fill:#58595b;}</style></defs><title>structure</title><path class="cls-1" d="M123.49,138.24a16,16,0,1,0-16-16,16,16,0,0,0,16,16" transform="translate(0 0)"/><path class="cls-2" d="M160.21,86.82l14.95-14.95A1.5,1.5,0,1,0,173,69.76L158.1,84.7a1.5,1.5,0,0,0,2.11,2.12m14.32,36.3h21.13a1.5,1.5,0,1,0,0-3H174.53a1.5,1.5,0,1,0,0,3M159,158.91l15,15a1.5,1.5,0,1,0,2.11-2.12L161.1,156.8a1.5,1.5,0,0,0-2.12,2.11m-36.3,14.32v21.13a1.5,1.5,0,1,0,3,0V173.23a1.5,1.5,0,1,0-3,0M86.89,157.68l-15,14.95a1.5,1.5,0,0,0,2.12,2.11L89,159.8a1.5,1.5,0,0,0-2.11-2.12m-14.32-36.3H51.44a1.5,1.5,0,1,0,0,3H72.57a1.5,1.5,0,1,0,0-3M88.12,85.59l-15-15a1.5,1.5,0,0,0-2.11,2.12L86,87.7a1.5,1.5,0,1,0,2.12-2.11m36.3-14.32V50.14a1.5,1.5,0,1,0-3,0V71.27a1.5,1.5,0,1,0,3,0M123.31,107a14.88,14.88,0,0,0,0,29.76h0a14.88,14.88,0,0,0,0-29.76h0m0,32.76h0a17.88,17.88,0,0,1,0-35.75h0a17.88,17.88,0,0,1,0,35.75m-18.56,12.88.87.49a36.31,36.31,0,0,0,8.55,3.48l1,.26.76,6.57a3.58,3.58,0,0,0,3.55,3.17l8.35,0a3.59,3.59,0,0,0,3.55-3.16l.8-6.79,1-.27a35.43,35.43,0,0,0,8-3.35l.87-.5,5.28,4.18a3.54,3.54,0,0,0,4.73-.26L158,150.6a3.59,3.59,0,0,0,.28-4.75l-4.19-5.31.5-.87A35.84,35.84,0,0,0,157.8,132l.27-1,6.66-.76a3.58,3.58,0,0,0,3.16-3.55l0-8.35a3.6,3.6,0,0,0-3.16-3.56h0l-6.36-.76-.26-1a35.92,35.92,0,0,0-3.31-8.4l-.47-.87,4-5a3.55,3.55,0,0,0-.26-4.73l-5.91-6a3.56,3.56,0,0,0-4.73-.28l-4.78,3.78-.89-.54a35.05,35.05,0,0,0-9-3.81l-1-.26-.68-5.92a3.57,3.57,0,0,0-3.55-3.16l-8.35,0A3.6,3.6,0,0,0,115.67,81L115,87l-1,.26a35.34,35.34,0,0,0-8.75,3.65l-.88.52-4.59-3.64A3.56,3.56,0,0,0,95,88l-5.92,5.9a3.53,3.53,0,0,0-.25,4.74h0l3.73,4.72-.49.88a35.51,35.51,0,0,0-3.4,8.32l-.26,1-6.07.69a3.58,3.58,0,0,0-3.16,3.55l0,8.35a3.58,3.58,0,0,0,3.16,3.56l6.14.73.26,1a35,35,0,0,0,3.51,8.41l.51.88-4,5a3.54,3.54,0,0,0,.26,4.73l5.9,5.92a3.58,3.58,0,0,0,4.74.28Zm23.07,17h0l-8.36,0A6.59,6.59,0,0,1,113,163.8l-.52-4.56a38.85,38.85,0,0,1-7.39-3l-3.55,2.8a6.57,6.57,0,0,1-8.71-.52l-5.9-5.92a6.53,6.53,0,0,1-.48-8.71l2.74-3.44a38.43,38.43,0,0,1-3-7.26L82,132.69a6.59,6.59,0,0,1-5.81-6.52h0l0-8.36A6.56,6.56,0,0,1,82,111.29l4.06-.47A39,39,0,0,1,89,103.67l-2.49-3.15A6.52,6.52,0,0,1,87,91.79l5.92-5.9a6.54,6.54,0,0,1,8.71-.48l3,2.37a37.81,37.81,0,0,1,7.62-3.17l.47-3.94a6.58,6.58,0,0,1,6.52-5.8h0l8.36,0a6.57,6.57,0,0,1,6.51,5.82l.45,3.91A38.58,38.58,0,0,1,142.39,88l3.18-2.5a6.57,6.57,0,0,1,8.71.52l5.9,6a6.54,6.54,0,0,1,.48,8.71l-2.74,3.45a38.87,38.87,0,0,1,2.84,7.21l4.34.52a6.58,6.58,0,0,1,5.8,6.52h0l0,8.36a6.57,6.57,0,0,1-5.81,6.51l-4.69.54a38.23,38.23,0,0,1-2.74,6.49l3,3.75a6.56,6.56,0,0,1-.52,8.7l-5.92,5.9a6.53,6.53,0,0,1-8.71.48l-3.7-2.93a38.64,38.64,0,0,1-6.8,2.86l-.56,4.81a6.59,6.59,0,0,1-6.53,5.8ZM218,36.72l-1-1.22,0,0a1.71,1.71,0,0,0-1.23-.5h-.19a2.1,2.1,0,0,0-1.32.64l-1.11,1.13L192.28,58l-8.76-8.46a2.23,2.23,0,0,0-1.07-.64l-.28,0a1.45,1.45,0,0,0-1,.46l-1.21,1.27h0a1.59,1.59,0,0,0-.64,1.13,1.55,1.55,0,0,0,.54,1.11L191,64l.11.09a1.82,1.82,0,0,0,1.11.47h.17A1.88,1.88,0,0,0,193.7,64l24-24.56a2.68,2.68,0,0,0,.69-1.28,1.59,1.59,0,0,0-.38-1.46m-1.3,8A22.82,22.82,0,0,1,194.87,74c-.61,0-1.23,0-1.84-.08a22.8,22.8,0,0,1-13-40.1l.45-.38a22.9,22.9,0,0,1,7.17-3.92,22.59,22.59,0,0,1,7.15-1.16c.62,0,1.24,0,1.85.07a22.76,22.76,0,0,1,8.71,2.49A22.65,22.65,0,0,1,210.93,35l.26.26-1.88,1.93L209,36.9A20.49,20.49,0,0,0,205.42,34a20.18,20.18,0,0,0-9-2.94c-.53,0-1.07-.07-1.61-.07a20,20,0,0,0-10.51,3,20.26,20.26,0,0,0-9.54,15.53,20.17,20.17,0,0,0,18.47,21.67c.54,0,1.08.06,1.61.06a20.23,20.23,0,0,0,20.06-18.54,20.46,20.46,0,0,0-.47-6.2l-.05-.21,2.17-2.21Zm31.44,62.44L247.13,106l0,0a1.69,1.69,0,0,0-1.23-.5h-.19a2.19,2.19,0,0,0-1.32.63l-1.11,1.13-20.83,21.24L213.66,120a2.23,2.23,0,0,0-1.07-.64,1.33,1.33,0,0,0-.28,0,1.38,1.38,0,0,0-1,.46l-1.22,1.27h0a1.59,1.59,0,0,0-.64,1.13,1.52,1.52,0,0,0,.54,1.1l11.13,11.2.1.09a1.85,1.85,0,0,0,1.11.47h.18a2,2,0,0,0,1.36-.58l24-24.56a2.61,2.61,0,0,0,.7-1.29,1.61,1.61,0,0,0-.39-1.46m-1.3,8A22.81,22.81,0,0,1,225,144.44c-.62,0-1.24,0-1.85-.07a22.83,22.83,0,0,1-18.44-33.26,22.86,22.86,0,0,1,5.44-6.85l.45-.37A22.66,22.66,0,0,1,225,98.81c.61,0,1.23,0,1.84.07a22.58,22.58,0,0,1,8.71,2.49,22.91,22.91,0,0,1,3.84,2.52,21.36,21.36,0,0,1,1.73,1.56l.27.26-1.89,1.93-.27-.27a20,20,0,0,0-12.61-5.81c-.53,0-1.07-.07-1.6-.07a19.92,19.92,0,0,0-10.52,3A20.27,20.27,0,0,0,204.91,120a20.16,20.16,0,0,0,18.48,21.66c.53.05,1.07.07,1.6.07a20.24,20.24,0,0,0,20.06-18.54,19.93,19.93,0,0,0-.47-6.21l-.05-.2,2.17-2.22Zm-28.44,62.44-1.05-1.21,0,0a1.72,1.72,0,0,0-1.23-.49h-.19a2.13,2.13,0,0,0-1.32.63l-1.11,1.13-20.83,21.24-8.76-8.46a2.15,2.15,0,0,0-1.07-.64,1.33,1.33,0,0,0-.28,0,1.4,1.4,0,0,0-1,.45l-1.22,1.27h0a1.59,1.59,0,0,0-.64,1.14,1.54,1.54,0,0,0,.54,1.1L191.36,205l.1.09a1.91,1.91,0,0,0,1.11.47h.18a1.91,1.91,0,0,0,1.36-.57l24-24.56a2.51,2.51,0,0,0,.69-1.29,1.57,1.57,0,0,0-.38-1.46m-1.3,8a22.83,22.83,0,0,1-14.71,28.08,22.59,22.59,0,0,1-7.15,1.16c-.62,0-1.24,0-1.85-.07a22.82,22.82,0,0,1-13-40.11l.45-.37a22.83,22.83,0,0,1,7.17-3.93,22.59,22.59,0,0,1,7.15-1.16c.62,0,1.24,0,1.85.08a22.58,22.58,0,0,1,8.71,2.49,22.91,22.91,0,0,1,3.84,2.52,21.18,21.18,0,0,1,1.73,1.56l.27.26-1.89,1.92-.27-.26a19.62,19.62,0,0,0-3.62-2.87,20.19,20.19,0,0,0-9-2.95c-.53,0-1.07-.06-1.6-.06a19.92,19.92,0,0,0-10.52,3,20.07,20.07,0,0,0-4.78,30.18,20,20,0,0,0,13.72,7c.53,0,1.07.06,1.6.06a20.23,20.23,0,0,0,20.06-18.53,19.91,19.91,0,0,0-.47-6.21l-.05-.2,2.17-2.22ZM147,209.06l-1.05-1.21,0,0a1.76,1.76,0,0,0-1.24-.49h-.19a2.2,2.2,0,0,0-1.32.64L142,209.1l-20.83,21.23-8.76-8.45a2.15,2.15,0,0,0-1.07-.64,1.27,1.27,0,0,0-.28,0,1.4,1.4,0,0,0-1,.45l-1.22,1.27h0a1.36,1.36,0,0,0-.1,2.24l11.13,11.2.1.09a2,2,0,0,0,1.12.47h.17a1.9,1.9,0,0,0,1.36-.58l24-24.55a2.65,2.65,0,0,0,.7-1.29,1.6,1.6,0,0,0-.39-1.46m-1.3,8a22.77,22.77,0,0,1-7.09,23.78,22.84,22.84,0,0,1-7.62,4.3,22.59,22.59,0,0,1-7.15,1.16c-.62,0-1.24,0-1.84-.07a22.84,22.84,0,0,1-19.86-15.56A22.79,22.79,0,0,1,109,206.14l.44-.37a22.75,22.75,0,0,1,14.33-5.09c.61,0,1.23,0,1.84.08a22.58,22.58,0,0,1,8.71,2.49,23,23,0,0,1,3.85,2.52,21.18,21.18,0,0,1,1.73,1.56l.26.26-1.89,1.92-.26-.26a20.16,20.16,0,0,0-12.61-5.82c-.53,0-1.08-.06-1.61-.06a20,20,0,0,0-10.52,3,20.27,20.27,0,0,0-9.54,15.53,20.16,20.16,0,0,0,18.48,21.66c.53,0,1.07.06,1.61.06a20.22,20.22,0,0,0,20-18.53,19.91,19.91,0,0,0-.47-6.21l-.05-.2,2.17-2.22ZM70,177.65l-1-1.21,0,0a1.74,1.74,0,0,0-1.23-.49h-.19a2.08,2.08,0,0,0-1.32.63l-1.11,1.13L44.27,198.93l-8.76-8.46a2.15,2.15,0,0,0-1.07-.64l-.28,0a1.44,1.44,0,0,0-1,.45l-1.21,1.27h0a1.59,1.59,0,0,0-.64,1.14,1.51,1.51,0,0,0,.54,1.1L42.94,205l.1.09a1.94,1.94,0,0,0,1.12.47h.17a1.87,1.87,0,0,0,1.36-.57l24-24.56a2.67,2.67,0,0,0,.69-1.29,1.59,1.59,0,0,0-.38-1.46m-1.3,8a22.82,22.82,0,0,1,.84,8.23,22.8,22.8,0,0,1-22.71,21c-.61,0-1.23,0-1.84-.07a22.81,22.81,0,0,1-13-40.11l.45-.37a22.75,22.75,0,0,1,14.32-5.09c.61,0,1.23,0,1.84.08a22.63,22.63,0,0,1,8.72,2.49,23.32,23.32,0,0,1,3.84,2.52,21.18,21.18,0,0,1,1.73,1.56l.26.26L61.3,178.1l-.27-.26A19.62,19.62,0,0,0,57.41,175a20.19,20.19,0,0,0-9-2.95c-.53,0-1.07-.06-1.61-.06a20,20,0,0,0-10.52,3,20.24,20.24,0,0,0-9.53,15.53,20.16,20.16,0,0,0,18.47,21.66c.53,0,1.08.06,1.61.06A20.23,20.23,0,0,0,66.9,193.69a20.53,20.53,0,0,0-.47-6.21l-.05-.2,2.17-2.22ZM46,104.27,45,103.06l0,0a1.74,1.74,0,0,0-1.23-.49h-.19a2.08,2.08,0,0,0-1.32.63l-1.11,1.13L20.26,125.55l-8.76-8.46a2.23,2.23,0,0,0-1.07-.64l-.28,0a1.41,1.41,0,0,0-1,.46l-1.21,1.27h0a1.62,1.62,0,0,0-.64,1.14,1.54,1.54,0,0,0,.54,1.1l11.12,11.2.11.09a1.82,1.82,0,0,0,1.11.47h.17a1.92,1.92,0,0,0,1.36-.58l24-24.56a2.67,2.67,0,0,0,.69-1.29,1.61,1.61,0,0,0-.38-1.46m-1.3,8a22.81,22.81,0,0,1-21.87,29.23c-.61,0-1.23,0-1.84-.07A22.82,22.82,0,0,1,.07,116.91,22.77,22.77,0,0,1,8,101.35l.45-.37A22.66,22.66,0,0,1,22.78,95.9c.62,0,1.24,0,1.85.07a22.58,22.58,0,0,1,8.71,2.49,22.65,22.65,0,0,1,5.57,4.08l.26.26-1.88,1.93-.27-.27a20,20,0,0,0-12.61-5.81c-.53-.05-1.07-.07-1.61-.07a19.91,19.91,0,0,0-10.51,3,20.24,20.24,0,0,0-9.54,15.53,20.16,20.16,0,0,0,18.47,21.66c.54.05,1.08.07,1.61.07a20.23,20.23,0,0,0,20.06-18.54,20.55,20.55,0,0,0-.47-6.21l-.05-.2,2.17-2.22ZM73.64,37.81l-1-1.21,0,0a1.73,1.73,0,0,0-1.24-.5h-.19a2.19,2.19,0,0,0-1.32.63l-1.11,1.13L47.88,59.09l-8.76-8.46A2.23,2.23,0,0,0,38.05,50a1.27,1.27,0,0,0-.28,0,1.38,1.38,0,0,0-1,.46l-1.22,1.27h0a1.6,1.6,0,0,0-.64,1.14,1.56,1.56,0,0,0,.54,1.1l11.13,11.2.1.09a1.91,1.91,0,0,0,1.12.47H48a1.94,1.94,0,0,0,1.36-.58l24-24.56a2.61,2.61,0,0,0,.7-1.29,1.61,1.61,0,0,0-.39-1.46m-1.3,8A22.84,22.84,0,0,1,70.7,62.77,22.81,22.81,0,0,1,57.63,73.91a22.59,22.59,0,0,1-7.15,1.16c-.62,0-1.24,0-1.84-.07a22.82,22.82,0,0,1-13-40.11l.44-.37a22.66,22.66,0,0,1,14.33-5.08c.61,0,1.23,0,1.84.07A22.58,22.58,0,0,1,61,32a22.5,22.5,0,0,1,5.58,4.08l.26.26-1.89,1.93L64.65,38A20.47,20.47,0,0,0,61,35.13a20.18,20.18,0,0,0-9-2.94c-.53,0-1.08-.07-1.61-.07a20,20,0,0,0-10.52,3,20.27,20.27,0,0,0-9.54,15.53A20.16,20.16,0,0,0,48.85,72.32c.53.05,1.07.07,1.61.07A20.22,20.22,0,0,0,70.51,53.85,19.93,19.93,0,0,0,70,47.64l-.05-.2,2.17-2.22ZM146.12,8.38l-1.05-1.22,0,0a1.71,1.71,0,0,0-1.24-.5h-.19a2.15,2.15,0,0,0-1.32.64l-1.11,1.13L120.36,29.65l-8.76-8.46a2.23,2.23,0,0,0-1.07-.64,1.27,1.27,0,0,0-.28,0,1.41,1.41,0,0,0-1,.46L108,22.25h0a1.36,1.36,0,0,0-.1,2.24L119,35.69l.1.09a1.92,1.92,0,0,0,1.12.48h.17a1.9,1.9,0,0,0,1.36-.58l24-24.56a2.62,2.62,0,0,0,.7-1.28,1.6,1.6,0,0,0-.39-1.46m-1.3,8a22.87,22.87,0,0,1-1.64,16.94,22.91,22.91,0,0,1-13.07,11.14A22.59,22.59,0,0,1,123,45.64c-.62,0-1.24,0-1.84-.08A22.83,22.83,0,0,1,102.67,12.3a22.58,22.58,0,0,1,5.45-6.84,5.54,5.54,0,0,1,.45-.37A22.7,22.7,0,0,1,122.89,0c.61,0,1.23,0,1.84.07a22.59,22.59,0,0,1,8.71,2.5,21.81,21.81,0,0,1,3.85,2.52A21.05,21.05,0,0,1,139,6.64l.26.26-1.89,1.93-.26-.27a20.93,20.93,0,0,0-3.63-2.87,20.18,20.18,0,0,0-9-2.94c-.53,0-1.08-.06-1.61-.06a20,20,0,0,0-10.52,3,20.29,20.29,0,0,0-9.54,15.53,20.17,20.17,0,0,0,18.48,21.67c.53,0,1.07.06,1.61.06A20.22,20.22,0,0,0,143,24.41a19.84,19.84,0,0,0-.47-6.2l-.05-.2,2.17-2.22Z" transform="translate(0 0)"/></svg>