<svg id="Layer_1" data-name="Layer 1" xmlns="http://www.w3.org/2000/svg" viewBox="0 0 130 130"><defs><style>.cls-1{fill:none;stroke:#575756;stroke-width:1.77px;}.cls-2{fill:#00afe9;}</style></defs><title>BHR_Icons</title><rect class="cls-1" x="87.5" y="57.59" width="20.26" height="55.82"/><polygon class="cls-2" points="39.49 49.78 39.49 69.69 22.24 69.66 22.24 114.29 62.47 114.29 62.47 49.78 39.49 49.78"/><polygon class="cls-1" points="48.86 35.83 48.86 113.41 87.33 113.41 87.33 15.71 48.86 35.83"/><line class="cls-1" x1="52.85" y1="41.74" x2="83.34" y2="41.74"/><line class="cls-1" x1="52.85" y1="46.77" x2="83.34" y2="46.77"/><line class="cls-1" x1="52.85" y1="52.18" x2="83.34" y2="52.18"/><line class="cls-1" x1="52.85" y1="57.59" x2="83.34" y2="57.59"/><line class="cls-1" x1="52.85" y1="62.97" x2="83.34" y2="62.97"/><line class="cls-1" x1="52.85" y1="68.58" x2="83.34" y2="68.58"/><line class="cls-1" x1="52.85" y1="74.18" x2="83.34" y2="74.18"/><line class="cls-1" x1="52.85" y1="79.78" x2="83.34" y2="79.78"/><line class="cls-1" x1="52.85" y1="85.39" x2="83.34" y2="85.39"/><line class="cls-1" x1="52.85" y1="90.99" x2="83.34" y2="90.99"/><line class="cls-1" x1="52.85" y1="96.59" x2="83.34" y2="96.59"/><line class="cls-1" x1="52.85" y1="102.19" x2="83.34" y2="102.19"/><line class="cls-1" x1="52.85" y1="107.8" x2="83.34" y2="107.8"/></svg>