<svg id="Layer_1" data-name="Layer 1" xmlns="http://www.w3.org/2000/svg" viewBox="0 0 130 130"><defs><style>.cls-1{fill:none;stroke:#575756;stroke-width:2.25px;}.cls-2{fill:#00afe9;}</style></defs><title>BHR_Icons</title><polygon class="cls-1" points="20.84 51.6 25.05 113.89 36.53 113.89 36.53 51.6 20.84 51.6"/><polygon class="cls-1" points="109.16 51.6 104.95 113.89 93.47 113.89 93.47 51.6 109.16 51.6"/><line class="cls-1" x1="49.57" y1="52.27" x2="49.57" y2="43.05"/><line class="cls-1" x1="49.57" y1="69.31" x2="49.57" y2="60.1"/><line class="cls-1" x1="49.57" y1="85.76" x2="49.57" y2="76.54"/><line class="cls-1" x1="49.57" y1="100.39" x2="49.57" y2="91.17"/><line class="cls-1" x1="59.87" y1="52.27" x2="59.87" y2="43.05"/><line class="cls-1" x1="59.87" y1="69.31" x2="59.87" y2="60.1"/><line class="cls-1" x1="59.87" y1="85.76" x2="59.87" y2="76.54"/><line class="cls-1" x1="59.87" y1="100.39" x2="59.87" y2="91.17"/><line class="cls-1" x1="70.17" y1="52.27" x2="70.17" y2="43.05"/><line class="cls-1" x1="70.17" y1="69.31" x2="70.17" y2="60.1"/><line class="cls-1" x1="70.17" y1="85.76" x2="70.17" y2="76.54"/><line class="cls-1" x1="70.17" y1="100.39" x2="70.17" y2="91.17"/><line class="cls-1" x1="80.47" y1="52.27" x2="80.47" y2="43.05"/><line class="cls-1" x1="80.47" y1="69.31" x2="80.47" y2="60.1"/><line class="cls-1" x1="80.47" y1="85.76" x2="80.47" y2="76.54"/><line class="cls-1" x1="80.47" y1="100.39" x2="80.47" y2="91.17"/><rect class="cls-2" x="48.09" y="16.11" width="33.86" height="22.77"/><rect class="cls-1" x="36.74" y="30.66" width="56.56" height="83.23"/></svg>