<svg id="Layer_1" data-name="Layer 1" xmlns="http://www.w3.org/2000/svg" viewBox="0 0 130 130"><defs><style>.cls-1{fill:none;stroke:#575756;stroke-width:2.19px;}.cls-2{fill:#00afe9;}</style></defs><title>retail</title><rect class="cls-1" x="7.21" y="47.23" width="38.21" height="4.73"/><rect class="cls-1" x="51.8" y="46.82" width="26.09" height="14.82"/><rect class="cls-2" x="6.11" y="85.72" width="117.78" height="29.25"/><polyline class="cls-1" points="45.49 52.2 11.4 52.2 11.4 113.88 118.6 113.88 118.6 52.2 85.03 52.2"/><rect class="cls-1" x="45.43" y="38.38" width="38.98" height="75.5"/><line class="cls-1" x1="28.18" y1="78.77" x2="28.18" y2="113.8"/><line class="cls-1" x1="44.97" y1="102.78" x2="11.4" y2="102.78"/><line class="cls-1" x1="44.97" y1="91.29" x2="11.4" y2="91.29"/><line class="cls-1" x1="44.97" y1="79.27" x2="11.4" y2="79.27"/><line class="cls-1" x1="101.05" y1="79.24" x2="101.05" y2="113.8"/><line class="cls-1" x1="117.83" y1="102.78" x2="84.27" y2="102.78"/><line class="cls-1" x1="117.83" y1="91.29" x2="84.27" y2="91.29"/><line class="cls-1" x1="117.83" y1="79.27" x2="84.27" y2="79.27"/></svg>